<?xml version="1.0" encoding="utf-8"?>
<!-- Generator: Adobe Illustrator 21.0.2, SVG Export Plug-In . SVG Version: 6.00 Build 0)  -->
<svg version="1.1" xmlns="http://www.w3.org/2000/svg" xmlns:xlink="http://www.w3.org/1999/xlink" x="0px" y="0px"
	 viewBox="0 0 226.8 198.4" style="enable-background:new 0 0 226.8 198.4;" xml:space="preserve">
<style type="text/css">
	.st0{stroke:#000000;stroke-width:2;stroke-miterlimit:10;}
	.st1{fill:#FFFFFF;stroke:#000000;stroke-width:1.5;stroke-miterlimit:10;}
</style>
<g id="레이어_1">
	<g>
		<path class="st0" d="M35.6,27c0,0-26.5-2.8-28.7,36.7s28.7,42.4,28.7,42.4S62,109.2,62,66.6S35.6,27,35.6,27z"/>
		<path class="st1" d="M36.7,182.9c-4.5-15.1-4.4-26.6-3.3-34.7c0.8-5.6,2.4-11.8,2.7-21.9c0.2-7.3-0.3-13.4-0.8-17.5"/>
		<g>
			<path d="M33.2,105.8c-1.4,1.1-2.5,2.7-2.9,4.5c-0.1,0.2-0.1,0.5-0.1,0.8c0.2,0.8,1.1,1,1.9,1c3,0.1,6,0.2,8.9,0.1
				c0.1,0,0.3,0,0.4-0.1c0.4-0.2,0.1-0.8-0.2-1.1c-1.1-1.3-2.2-2.5-3.2-3.8c-0.4-0.4-0.8-0.9-1.3-1.1c-0.5-0.2-0.9-0.1-1.4-0.1
				c-1.2,0.1-2.3,0.3-3.5,0.4"/>
			<g>
				<path d="M32.3,104.9c-1.6,1.4-4.8,5.2-2.8,7.4c0.9,1,2.3,1,3.5,1c2.4,0.1,4.8,0.1,7.1,0c1.1,0,2.4,0,2.7-1.3
					c0.3-1.3-1-2.4-1.7-3.2c-1-1.2-2.2-3.1-3.7-3.8c-1.7-0.7-3.9,0-5.6,0.1c-1.6,0.2-1.6,2.7,0,2.5c1.1-0.1,2.4-0.5,3.5-0.4
					c1.5,0.1,1.6,0.4,2.4,1.4c0.6,0.7,1.3,1.4,1.9,2.2c0.2,0.4,0.4,0.4,0.6,0c-0.6,0-1.2,0-1.8,0c-0.9,0-1.8,0-2.7,0
					c-0.8,0-2.9,0.3-3.6-0.1c-0.2,0-0.4-0.1-0.6-0.1c0.1-0.6,0.3-1.1,0.6-1.7c0.5-0.9,1.2-1.6,2-2.3
					C35.3,105.6,33.5,103.8,32.3,104.9L32.3,104.9z"/>
			</g>
		</g>
		<g>
			<g>
				<path d="M32.9,28.8c0,0.2,0,0.4,0,0.6c0,1.6,2.5,1.6,2.5,0c0-0.2,0-0.4,0-0.6C35.4,27.2,32.9,27.2,32.9,28.8L32.9,28.8z"/>
			</g>
		</g>
	</g>
</g>
<g id="레이어_2">
	<g>
		<path class="st0" d="M113,27c0,0-26.5-2.8-28.7,36.7s28.7,42.4,28.7,42.4s26.4,3.1,26.4-39.6S113,27,113,27z"/>
		<path class="st1" d="M112.8,185c4-14.3,4-25.6,3.3-33.5c-0.7-7.2-2.3-13.6-3.1-26.1c-0.4-7-0.4-12.7-0.3-16.6"/>
		<g>
			<path d="M110.5,105.8c-1.4,1.1-2.5,2.7-2.9,4.5c-0.1,0.2-0.1,0.5-0.1,0.8c0.2,0.8,1.1,1,1.9,1c3,0.1,6,0.2,8.9,0.1
				c0.1,0,0.3,0,0.4-0.1c0.4-0.2,0.1-0.8-0.2-1.1c-1.1-1.3-2.2-2.5-3.2-3.8c-0.4-0.4-0.8-0.9-1.3-1.1c-0.5-0.2-0.9-0.1-1.4-0.1
				c-1.2,0.1-2.3,0.3-3.5,0.4"/>
			<g>
				<path d="M109.6,104.9c-1.6,1.4-4.8,5.2-2.8,7.4c0.9,1,2.3,1,3.5,1c2.4,0.1,4.8,0.1,7.1,0c1.1,0,2.4,0,2.7-1.3
					c0.3-1.3-1-2.4-1.7-3.2c-1-1.2-2.2-3.1-3.7-3.8c-1.7-0.7-3.9,0-5.6,0.1c-1.6,0.2-1.6,2.7,0,2.5c1.1-0.1,2.4-0.5,3.5-0.4
					c1.5,0.1,1.6,0.4,2.4,1.4c0.6,0.7,1.3,1.4,1.9,2.2c0.2,0.4,0.4,0.4,0.6,0c-0.6,0-1.2,0-1.8,0c-0.9,0-1.8,0-2.7,0
					c-0.8,0-2.9,0.3-3.6-0.1c-0.2,0-0.4-0.1-0.6-0.1c0.1-0.6,0.3-1.1,0.6-1.7c0.5-0.9,1.2-1.6,2-2.3
					C112.6,105.6,110.8,103.8,109.6,104.9L109.6,104.9z"/>
			</g>
		</g>
		<g>
			<g>
				<path d="M110.2,28.8c0,0.2,0,0.4,0,0.6c0,1.6,2.5,1.6,2.5,0c0-0.2,0-0.4,0-0.6C112.7,27.2,110.2,27.2,110.2,28.8L110.2,28.8z"/>
			</g>
		</g>
	</g>
</g>
<g id="레이어_3">
	<g>
		<path class="st0" d="M190.3,27c0,0-26.5-2.8-28.7,36.7s28.7,42.4,28.7,42.4s26.4,3.1,26.4-39.6S190.3,27,190.3,27z"/>
		<path class="st1" d="M190.1,185c4-14.3,4-25.6,3.3-33.5c-0.7-7.2-2.3-13.6-3.1-26.1c-0.4-7-0.4-12.7-0.3-16.6"/>
		<g>
			<path d="M187.9,105.8c-1.4,1.1-2.5,2.7-2.9,4.5c-0.1,0.2-0.1,0.5-0.1,0.8c0.2,0.8,1.1,1,1.9,1c3,0.1,6,0.2,8.9,0.1
				c0.1,0,0.3,0,0.4-0.1c0.4-0.2,0.1-0.8-0.2-1.1c-1.1-1.3-2.2-2.5-3.2-3.8c-0.4-0.4-0.8-0.9-1.3-1.1c-0.5-0.2-0.9-0.1-1.4-0.1
				c-1.2,0.1-2.3,0.3-3.5,0.4"/>
			<g>
				<path d="M187,104.9c-1.6,1.4-4.8,5.2-2.8,7.4c0.9,1,2.3,1,3.5,1c2.4,0.1,4.8,0.1,7.1,0c1.1,0,2.4,0,2.7-1.3
					c0.3-1.3-1-2.4-1.7-3.2c-1-1.2-2.2-3.1-3.7-3.8c-1.7-0.7-3.9,0-5.6,0.1c-1.6,0.2-1.6,2.7,0,2.5c1.1-0.1,2.4-0.5,3.5-0.4
					c1.5,0.1,1.6,0.4,2.4,1.4c0.6,0.7,1.3,1.4,1.9,2.2c0.2,0.4,0.4,0.4,0.6,0c-0.6,0-1.2,0-1.8,0c-0.9,0-1.8,0-2.7,0
					c-0.8,0-2.9,0.3-3.6-0.1c-0.2,0-0.4-0.1-0.6-0.1c0.1-0.6,0.3-1.1,0.6-1.7c0.5-0.9,1.2-1.6,2-2.3
					C190,105.6,188.2,103.8,187,104.9L187,104.9z"/>
			</g>
		</g>
		<g>
			<g>
				<path d="M187.6,28.8c0,0.2,0,0.4,0,0.6c0,1.6,2.5,1.6,2.5,0c0-0.2,0-0.4,0-0.6C190.1,27.2,187.6,27.2,187.6,28.8L187.6,28.8z"/>
			</g>
		</g>
	</g>
</g>
</svg>
