<?xml version="1.0" encoding="utf-8"?>
<!-- Generator: Adobe Illustrator 21.0.2, SVG Export Plug-In . SVG Version: 6.00 Build 0)  -->
<svg version="1.1" xmlns="http://www.w3.org/2000/svg" xmlns:xlink="http://www.w3.org/1999/xlink" x="0px" y="0px"
	 viewBox="0 0 640 215" style="enable-background:new 0 0 640 215;" xml:space="preserve">
<style type="text/css">
	.st0{fill:#595757;}
	.st1{fill:none;stroke:#000000;stroke-miterlimit:10;}
	.st2{fill:none;stroke:#595757;stroke-miterlimit:10;}
	.st3{display:none;}
	.st4{display:inline;}
</style>
<g id="whale1">
	<g id="XMLID_2_">
		<g>
			<path class="st0" d="M509.4,114.8c0.1,1.3,0,3.3-1,5.4C509,118.8,509.4,116.9,509.4,114.8z"/>
			<path d="M131.2,112c43.2-6.6,74.7-12.8,85-15.7c9.3-2.6,17.2-6.2,17.2-6.2c4.7-2.2,8.4-4.3,10.8-5.8c-1.4-6.2-2.9-12.4-4.3-18.6
				c4.4-0.9,12.9-2,22.9,0.6c9.9,2.5,16.6,7.4,20.1,10.3v0c84.5,0.1,120.1,2.1,134.7,4.3c0,0,0.5,0.1,0.7,0.1c6.9,1,38,5.8,47.7,7.5
				c30.8,5.3,37.6,12.8,40.4,17.3c1.3,2.1,2.1,4,2.6,5.4c0.3,1.2,0.4,2.4,0.4,3.6c0,0,0-0.1,0-0.1c-13.2-0.7-24.3-0.6-32.4-0.2
				c-11.9,0.5-19.7,0.9-25.3,1.5c0,0,0,0,0,0c-11.3,0.1-22.7,0.1-34,0.2c-5,0-10.1,0.1-15,1.1c-4.3,0.9-8.4,2.5-12.5,4
				c-26.6,9.8-54.5,16.6-82.8,16.6l-0.9-0.4c-1.5,3.6-2.9,7.2-4.4,10.8c-0.3,0.8-0.6,1.6-1,2.4c-0.1,0.1-0.1,0.3-0.2,0.4
				c-0.3,0.7-0.5,1.1-0.6,1.4c-0.2,0.4-0.3,0.7-0.5,1.1c-0.2,0.4-0.3,0.8-0.5,1.1c0,0,0,0.1,0,0.1c-0.7,1.5-1.7,3.3-3,5.4
				c0,0,0,0,0,0c-0.3,0.5-0.7,1-1.1,1.5c-4.8,6.5-12,10.8-19.6,13.2c-7.6,2.5-15.7,3.3-23.7,3.8c-0.4-3.2,1-6.4,2.5-9.2
				c3.5-6.5,7.8-12.6,11.7-18.8c0,0,0.1,0,0.1,0.1c1.5-2.4,3-5,4.4-7.9c1.4-2.7,2.5-5.4,3.6-7.8c-0.1,0-0.3,0-0.4,0
				c-2.6,0.1-6.1,0.3-10.3,0.5c-8.1,0.4-9.7,0.5-11.1,0.6c-1.4,0.1-2.7,0.2-3.9,0.3c-1.9,0.2-2.9,0.3-8.4,0.8
				c-2.9,0.3-7.6,0.3-15.3-1.4c0,0,0,0,0,0c-3-0.7-5.1-1.3-10.9-2.4c-6.3-1.2-15.4-2.9-27-3.3c-5.5-0.2-9.9,0-15.1,0.1
				c-6.1,0.2-11.4,0.4-16.8,1.1c-5.2,0.6-12.3,2-20.7,4.9c-2.3,2.6-6.2,6.2-12.1,8.4c-12.4,4.6-23.4-1-25.3-2
				c1.1,0.1,8.9,0.5,13.2-4.4c0.9-1,2.8-3.2,2.7-6.2c0-0.3,0.1-1.6-0.7-2.9c-2.1-3.4-5.8-5.5-9.6-6.6c-3.8-1-7.9-1.1-11.8-1.1
				c4.7-4.5,9.6-9.1,15.8-11.4c2.8-1,7.3-2.7,13-2C124.5,108.7,126,110.5,131.2,112z"/>
			<path class="st0" d="M451.7,116c5.5-0.6,13.4-1,25.3-1.5c8.1-0.3,19.2-0.5,32.4,0.2c0,0,0,0.1,0,0.1c0,2.1-0.4,4-1,5.4
				c0,0,0,0.1-0.1,0.1c-0.2,0.3-0.3,0.7-0.3,0.7s-0.3,0.5-0.6,1.2c0,0,0,0,0,0c-1.6,2.2-3.8,3.5-5.1,4.5
				c-5.8,4.7-11.8,9.1-18.1,13.1c-1,0.6-2,1.2-3,1.9c-0.1,0.1-0.2,0.1-0.3,0.2c-18.8,11.3-39.6,19.3-61.2,23.4
				c-39.5,7.4-71.3-0.9-91-5.9c-11.3-2.9-20.6-6.1-27.4-8.7c1.3-3,1.6-3.8,2.2-5.2c0.5-1.2,1.2-3,2.1-5.1c4.5,1,11,2.1,18.9,2.3
				c5.6,0.2,6.5-0.4,25.2-2.3c9.3-0.9,11.7-1.1,24.8-2.4c3.6-0.4,7.3-0.8,11.9-1.3c7.6-0.9,11.4-1.3,13.5-1.7
				c9.6-1.7,16.8-4.7,21.8-6.9c9.5-4.2,10.3-6,16.6-8.9C441.4,117.6,444.6,116.7,451.7,116C451.7,116,451.7,116,451.7,116z"/>
			<path d="M508,121c0,0,0.2-0.3,0.3-0.7c-0.3,0.7-0.6,1.3-1,1.8C507.7,121.5,508,121,508,121z"/>
			<path class="st0" d="M507.3,122.2c-0.2,0.4-0.5,0.9-0.8,1.3c-0.8,1.2-2.6,2.7-4.8,4.4c-2.2,1.7-4.8,3.6-7.4,5.5
				c-2.6,1.6-6.1,3.8-10.2,6.3c6.3-4,12.4-8.3,18.1-13.1C503.5,125.7,505.8,124.4,507.3,122.2z"/>
			<path d="M484.1,139.8c-1,0.6-2,1.3-3,1.9C482.2,141,483.2,140.4,484.1,139.8z"/>
			<path class="st0" d="M480.8,141.8c-0.2,0.1-0.3,0.2-0.5,0.3c-34.5,21.2-40.1,24.1-47.7,26.7c-12.2,4.2-22.3,5.5-28,6.1
				c-1,0.1-1.8,0.2-3.2,0.3c-2.3,0.2-17,1.6-30.8,1.6c-12.9,0-22.1-1.1-38.4-3c-13.4-1.6-27.6-9.7-31.5-11.4
				c-1.9-0.8-3.5-1.6-4.5-2.1c0.1-0.1,0.1-0.2,0.2-0.3c0,0,0,0,0,0c1.1-1.7,2.1-3.5,3-5.4c0,0,0,0,0-0.1c0.2-0.4,0.4-0.8,0.5-1.1
				c0.2-0.4,0.3-0.7,0.5-1.1c0.2-0.5,0.4-0.9,0.6-1.4c0.1-0.1,0.1-0.3,0.2-0.4c6.8,2.6,16.2,5.8,27.4,8.7c19.7,5,51.5,13.3,91,5.9
				C441.2,161.2,462,153.2,480.8,141.8z"/>
			<path d="M417.7,116.2c11.3-0.1,22.7-0.1,34-0.2c-7.1,0.7-10.4,1.6-13.5,3.1c-6.3,2.9-7.1,4.8-16.6,8.9c-5,2.2-12.2,5.3-21.8,6.9
				c-2,0.4-5.9,0.8-13.5,1.7c-4.6,0.5-8.3,0.9-11.9,1.3c-13.1,1.3-15.5,1.5-24.8,2.4c-18.8,1.9-19.6,2.4-25.2,2.3
				c-7.9-0.2-14.4-1.3-18.9-2.3c-0.9,2.2-1.6,3.9-2.1,5.1c-0.6,1.4-0.9,2.2-2.2,5.2c0.3-0.8,0.6-1.6,1-2.4c1.4-3.6,2.9-7.2,4.4-10.8
				l0.9,0.4c28.3,0,56.3-6.8,82.8-16.6c4.1-1.5,8.2-3.1,12.5-4C407.6,116.2,412.7,116.2,417.7,116.2z"/>
			<path class="st0" d="M301,151c-0.2,0.5-0.4,0.9-0.6,1.4C300.5,152.1,300.7,151.7,301,151z"/>
			<path class="st0" d="M299.4,154.7c-0.9,1.9-1.8,3.7-3,5.4C297.7,158,298.7,156.2,299.4,154.7z"/>
			<path class="st0" d="M273.9,135c0.1,0,0.3,0,0.4,0c-1,2.5-2.2,5.1-3.6,7.8c-1.5,2.9-2.9,5.5-4.4,7.9c0,0-0.1,0-0.1-0.1v0
				c0.5-0.7,0.9-1.5,1.4-2.2C270.2,144.1,272.4,139.7,273.9,135z"/>
			<path class="st0" d="M263.6,135.6c4.2-0.2,7.7-0.4,10.3-0.5c-1.5,4.7-3.8,9.1-6.3,13.4l-0.5-0.3c-1.9-1.7-4.9-4.2-9.1-6
				c-3-1.3-5.3-1.7-11.9-2.7c-7.7-1.2-12.1-1.8-14.6-2.2c-2.9-0.5-4.9-0.8-6.5-1.2c0,0,0,0,0,0c7.6,1.6,12.3,1.7,15.3,1.4
				c5.5-0.6,6.5-0.7,8.4-0.8c1.2-0.1,2.5-0.2,3.9-0.3C253.9,136.1,255.5,136,263.6,135.6z"/>
			<path class="st0" d="M267.1,148.1l0.5,0.3c-0.4,0.7-0.9,1.5-1.4,2.2c-3.9-2.6-7.4-4.1-9.9-5.1c-1.6-0.6-4.2-1.3-9.5-2.8
				c-1.6-0.4-3.7-1-6.4-1.4c-0.9-0.1-0.8-0.1-2.3-0.3c-2.2-0.3-2.9-0.5-4.4-0.7c-1-0.2-1.7-0.3-1.9-0.3c-1.1-0.2-3.1-1-6.9-4
				c1.7,0.4,3.6,0.7,6.5,1.2c2.6,0.4,7,1,14.6,2.2c6.6,1,8.9,1.4,11.9,2.7C262.2,143.9,265.2,146.4,267.1,148.1z"/>
		</g>
		<g>
			<path class="st1" d="M509,111.2c-0.5-1.3-1.3-3.3-2.6-5.4c-2.9-4.5-9.6-12-40.4-17.3c-9.7-1.6-40.7-6.5-47.7-7.5
				c-0.2,0-0.7-0.1-0.7-0.1c-14.6-2.2-50.1-4.2-134.7-4.3c-3.7,0-7.5,0-11.4,0"/>
			<path class="st1" d="M282.9,76.6c-3.5-2.9-10.2-7.7-20.1-10.3c-10.1-2.6-18.5-1.5-22.9-0.6c1.4,6.2,2.9,12.4,4.3,18.6
				c-2.5,1.5-6.2,3.6-10.8,5.8c0,0-7.9,3.6-17.2,6.2c-10.3,2.9-41.9,9.1-85,15.7c-1.6,0.2-3.2,0.5-4.8,0.7"/>
			<path class="st1" d="M146.4,113.5c-6.5,0.5-11.4-0.4-14.7-1.3c-0.2,0-0.3-0.1-0.5-0.1c-5.2-1.6-6.7-3.3-11.5-3.8
				c-5.7-0.7-10.2,1-13,2c-6.1,2.3-11,6.9-15.8,11.4c4,0,8,0.1,11.8,1.1c3.8,1,7.5,3.2,9.6,6.6c0.8,1.3,0.7,2.6,0.7,2.9
				c0.1,3-1.8,5.2-2.7,6.2c-4.3,4.9-12.2,4.5-13.2,4.4c1.9,1,12.9,6.6,25.3,2c5.9-2.2,9.8-5.8,12.1-8.4c0.5-0.6,1-1.1,1.3-1.6"/>
			<path class="st1" d="M301.2,150.6c-0.3-0.1-0.7-0.3-1-0.4"/>
			<path class="st1" d="M484.1,139.8c-1,0.6-2,1.3-3,1.9"/>
			<path class="st1" d="M508.3,120.3c-0.3,0.7-0.6,1.3-1,1.8"/>
			<path class="st1" d="M508.6,109.9c0.1,0.3,0.2,0.8,0.4,1.3c0.3,1.2,0.4,2.4,0.4,3.6"/>
			<path class="st1" d="M273.9,135c0.6-1.8,1.1-3.7,1.4-5.7"/>
			<path class="st2" d="M266.3,150.7c0.5-0.7,0.9-1.5,1.4-2.2"/>
			<path class="st1" d="M296.4,160.1c-0.3,0.5-0.7,1-1.1,1.5c-4.8,6.5-12,10.8-19.6,13.2c-7.6,2.5-15.7,3.3-23.7,3.8
				c-0.4-3.2,1-6.4,2.5-9.2c3.5-6.5,7.8-12.6,11.7-18.8"/>
			<path class="st1" d="M299.9,153.5c-0.2,0.4-0.3,0.8-0.5,1.1"/>
			<path class="st1" d="M309.8,129.3c-1.1,2.7-2.2,5.4-3.3,8.1c-1.5,3.6-2.9,7.2-4.4,10.8c-0.3,0.8-0.6,1.6-1,2.4"/>
			<path class="st1" d="M225,136c-3-0.7-5.1-1.3-10.9-2.4c-6.3-1.2-15.4-2.9-27-3.3c-5.5-0.2-9.9,0-15.1,0.1
				c-6.1,0.2-11.4,0.4-16.8,1.1c-5.2,0.6-12.3,2-20.7,4.9c-1.1,0.4-2.3,0.8-3.5,1.3"/>
			<path class="st1" d="M307.4,137.8c28.3,0,56.3-6.8,82.8-16.6c4.1-1.5,8.2-3.1,12.5-4c4.9-1,10-1,15-1.1c11.3-0.1,22.7-0.1,34-0.2
				"/>
			<path class="st1" d="M272.7,135c-15.2-0.7-30.5-1.5-45.7-2.2"/>
			<path class="st2" d="M296.4,160.1c0,0.1-0.1,0.2-0.2,0.3c1.1,0.5,2.6,1.2,4.5,2.1c3.9,1.7,18.1,9.8,31.5,11.4
				c16.3,2,25.5,3.1,38.4,3c13.8,0,28.5-1.4,30.8-1.6c1.4-0.1,2.2-0.2,3.2-0.3c5.6-0.7,15.8-1.9,28-6.1c7.6-2.6,13.2-5.5,47.7-26.7
				c0.2-0.1,0.3-0.2,0.5-0.3c0.1-0.1,0.2-0.1,0.3-0.2c1-0.6,2.1-1.3,3-1.9c4.1-2.6,7.6-4.7,10.2-6.3c2.5-1.9,5.2-3.8,7.4-5.5
				c2.2-1.7,4-3.3,4.8-4.4c0.3-0.4,0.6-0.9,0.8-1.3c0,0,0,0,0,0c0.4-0.7,0.6-1.2,0.6-1.2s0.2-0.3,0.3-0.7c0,0,0-0.1,0.1-0.1
				c1-2.1,1.1-4.1,1-5.4c0,0,0-0.1,0-0.1c-13.2-0.7-24.3-0.6-32.4-0.2c-11.9,0.5-19.7,0.9-25.3,1.5c0,0,0,0,0,0
				c-7.1,0.7-10.4,1.6-13.5,3.1c-6.3,2.9-7.1,4.8-16.6,8.9c-5,2.2-12.2,5.3-21.8,6.9c-2,0.4-5.9,0.8-13.5,1.7
				c-4.6,0.5-8.3,0.9-11.9,1.3c-13.1,1.3-15.5,1.5-24.8,2.4c-18.8,1.9-19.6,2.4-25.2,2.3c-7.9-0.2-14.4-1.3-18.9-2.3
				c-0.9,2.2-1.6,3.9-2.1,5.1c-0.6,1.4-0.9,2.2-2.2,5.2c-0.1,0.1-0.1,0.3-0.2,0.4c-0.3,0.7-0.5,1.1-0.6,1.4
				c-0.2,0.4-0.3,0.7-0.5,1.1c-0.2,0.4-0.3,0.7-0.5,1.1c0,0,0,0.1,0,0.1C298.7,156.2,297.7,158,296.4,160.1
				C296.4,160.1,296.4,160.1,296.4,160.1z"/>
			<path class="st2" d="M273.9,135c0.1,0,0.3,0,0.4,0c-1,2.5-2.2,5.1-3.6,7.8c-1.5,2.9-2.9,5.5-4.4,7.9c0,0-0.1,0-0.1-0.1v0
				c-3.9-2.6-7.4-4.1-9.9-5.1c-1.6-0.6-4.2-1.3-9.5-2.8c-1.6-0.4-3.7-1-6.4-1.4c-0.9-0.1-0.8-0.1-2.3-0.3c-2.2-0.3-2.9-0.5-4.4-0.7
				c-1-0.2-1.7-0.3-1.9-0.3c-1.1-0.2-3.1-1-6.9-4c0,0,0,0,0,0c7.6,1.6,12.3,1.7,15.3,1.4c5.5-0.6,6.5-0.7,8.4-0.8
				c1.2-0.1,2.5-0.2,3.9-0.3c1.4-0.1,3-0.2,11.1-0.6C267.8,135.3,271.4,135.1,273.9,135z"/>
		</g>
	</g>
</g>
<g id="whale2" class="st3">
	<g id="XMLID_1_" class="st4">
		<g>
			<path class="st0" d="M514.5,130.3c0,1.3-0.2,3.4-1.3,5.4C513.8,134.3,514.4,132.4,514.5,130.3z"/>
			<path class="st0" d="M456.9,127.6c5.6-0.2,13.4-0.1,25.3,0.2c8.1,0.2,19.1,0.8,32.3,2.4l0,0c-0.1,2.1-0.7,4-1.3,5.4
				c0,0,0,0.1-0.1,0.1c-0.2,0.3-0.4,0.6-0.4,0.6s-0.3,0.5-0.8,1.1c0,0,0,0,0,0c-1.7,2.1-4,3.2-5.3,4.2c-5.9,4.2-12.2,8.1-18.6,11.6
				c0,0,0,0-0.1,0c-1.3,0.7-2.8,1.5-4.3,2.2c-0.1,0-0.1,0.1-0.2,0.1c-19.3,9.9-40.4,16.3-62,18.9c-39.9,4.7-71.1-5.7-90.4-12
				c-11.5-3.8-20.9-7.8-27.5-10.9c0.6-0.6,1.3-1.3,1.9-2c1.4-1.6,3.3-4.1,5-7.4c4.4,1.2,10.4,2.6,17.6,3.3c5.6,0.5,6.5,0,25.3-0.6
				c9.3-0.3,11.7-0.3,24.9-0.8c3.6-0.1,7.3-0.3,12-0.5c7.7-0.4,11.5-0.5,13.6-0.7c9.7-1,17.1-3.6,22.2-5.5
				c9.8-3.5,10.7-5.3,17.1-7.8C446.5,128.6,449.8,127.9,456.9,127.6C456.9,127.6,456.9,127.6,456.9,127.6z"/>
			<path d="M311.8,139.7c-0.4,0.9-0.8,1.8-1.2,2.6c-0.4-0.1-0.8-0.2-1.1-0.3c-1.2,2.1-7.7,11.3-9.1,12.4c-1.2,1-1.6,1.1-4.3,2.7
				c-1.3,0.8-2.4,1.5-3.1,2c0,0,0,0-0.1,0c-1.2,0.7-2.5,1.4-3.9,2.2c-8.8,5-13.2,7.6-18,8.6c-3.9,0.9-14.8,2.6-29.4-5.6
				c4.9-1.4,12.5-4.3,20.1-10.3c2.3-1.8,4.3-3.7,6.1-5.6c0.7-0.7,1.3-1.4,1.9-2.1c1.2-1.4,2.3-2.9,3.3-4.3c0.1-0.1,0.1-0.1,0.2-0.2
				c1.8-2.5,3.5-4.9,4.9-7.1c-0.2,0-0.4,0-0.6,0c-3.7-0.1-6.9-0.2-9.6-0.3c0,0-5.7-0.1-10.4-0.1c-0.2,0-0.5,0-0.7,0
				c-1.4,0-2.7,0-3.9,0c-0.9,0-1.6,0-1.7,0c-3.6,0.1-9.1-0.8-9.1-0.8c-3.8-0.6-8.7-1.3-14.5-2.3l0,0c-0.5-0.2-1-0.4-1.5-0.6
				c-6.6-2.5-11.4-7.2-16.7-10.2c-7.2-4.2-14-4.5-22.6-5c-13.6-0.8-24.1,2.6-32.1,5.2c-5,1.6-9.2,3.4-12.5,4.9
				c-0.4,3.4-1.7,8.8-5.6,14c-7.9,10.6-20.2,11.9-22.3,12.1c0.9-0.5,7.8-4.4,8.7-10.9c0.2-1.3,0.6-4.2-1.1-6.7
				c-0.2-0.2-0.8-1.4-2.2-2.1c-3.6-1.7-7.9-1.5-11.6-0.3c-3.8,1.2-7.2,3.4-10.5,5.5c1.9-8,4.8-14.1,7-18.1c3.1-5.6,5.2-9.3,9.6-11.6
				c3.7-1.9,6.3-1.4,12.5-1.9c2.3-0.2,5.1-0.6,8.3-1.2c9.2-4.4,21.9-9.7,37.7-13.9c14.4-3.9,25.7-5.3,34-6.3
				c11.5-1.4,26.9-2.7,45.2-2.2c-1-6.3-2.1-12.6-3.1-18.9c4.5-0.6,13-1.1,22.8,2.2c9.7,3.2,16.1,8.5,19.3,11.6l0,0
				c84.3,5.8,119.6,10.1,134.1,13.3c0,0,0.5,0.1,0.7,0.2c6.9,1.5,37.5,8.4,47.1,10.7c30.4,7.3,36.6,15.2,39.2,20
				c1.2,2.2,1.9,4.2,2.3,5.5c0.2,1.2,0.2,2.4,0.1,3.5c-13.1-1.6-24.2-2.2-32.3-2.4c-11.9-0.3-19.7-0.4-25.3-0.2c0,0,0,0,0,0
				c-11.3-0.7-22.6-1.4-33.9-2.1c-5-0.3-10-0.6-15,0.1c-4.3,0.6-8.5,1.9-12.7,3.1C368.2,136.7,339.9,141.6,311.8,139.7z"/>
			<path d="M512.7,136.4c0,0,0.2-0.3,0.4-0.6c-0.3,0.7-0.7,1.2-1.1,1.8C512.4,136.9,512.7,136.4,512.7,136.4z"/>
			<path class="st0" d="M512,137.6c-0.3,0.4-0.6,0.8-0.9,1.2c-0.9,1.1-2.7,2.5-5,4.1c-2.3,1.6-5.1,3.3-7.7,5
				c-2.6,1.4-6.1,3.2-10.2,5.4c6.4-3.5,12.6-7.4,18.6-11.6C507.9,140.8,510.2,139.7,512,137.6z"/>
			<path d="M483.7,155.6c1.5-0.8,2.9-1.5,4.3-2.2C486.6,154.2,485.1,154.9,483.7,155.6z"/>
			<path class="st0" d="M421.6,174.6c21.6-2.6,42.7-9,62-18.9c-35.7,18.8-41.5,21.3-49.2,23.4c-12.4,3.4-22.6,4-28.3,4.2
				c-1,0.1-1.8,0.1-3.2,0.1c-2.3,0.1-17.1,0.5-30.9-0.4c-12.8-0.8-22-2.6-38.1-5.6c-3-0.6-12.2-5.2-30.7-13.5
				c-4.4-2-7.9-3.6-10.3-4.7c0,0,0,0,0.1,0c4.7-2.8,7.9-4.8,10.7-7.4c6.7,3.1,16,7.1,27.5,10.9C350.5,169,381.7,179.4,421.6,174.6z"
				/>
			<path d="M422.9,125.5c11.3,0.7,22.6,1.4,33.9,2.1c-7.1,0.2-10.4,0.9-13.6,2.1c-6.5,2.5-7.4,4.3-17.1,7.8
				c-5.1,1.8-12.5,4.5-22.2,5.5c-2,0.2-5.9,0.4-13.6,0.7c-4.7,0.2-8.3,0.4-12,0.5c-13.1,0.5-15.6,0.5-24.9,0.8
				c-18.9,0.6-19.8,1.1-25.3,0.6c-7.2-0.7-13.2-2-17.6-3.3c0.4-0.8,0.8-1.7,1.2-2.6c28.1,1.8,56.4-3.1,83.4-11
				c4.2-1.2,8.4-2.5,12.7-3.1C412.9,124.9,417.9,125.2,422.9,125.5z"/>
			<path class="st0" d="M303.6,151.7c-2.8,2.7-5.9,4.7-10.7,7.4c0.7-0.5,1.8-1.2,3.1-2c2.6-1.6,3-1.7,4.3-2.7
				c1.4-1.1,7.9-10.3,9.1-12.4c0.4,0.1,0.7,0.2,1.1,0.3c-1.7,3.3-3.6,5.8-5,7.4C304.9,150.5,304.3,151.1,303.6,151.7z"/>
			<path class="st0" d="M277.5,134.9c0.2,0,0.4,0,0.6,0c-1.4,2.3-3.1,4.7-4.9,7.1C275,139.5,276.4,137,277.5,134.9z"/>
			<path class="st0" d="M277.5,134.9c-1.1,2.2-2.5,4.6-4.3,7.2c-0.1,0.1-0.1,0.1-0.2,0.2c-1.1,1.5-2.3,2.9-3.4,4.2
				c-1.8-1.8-4.3-3.9-7.8-5.7c-2.9-1.5-5.1-2-11.6-3.5c-7.6-1.7-9.2-1.8-14.5-3.2c0,0-4-1.1-8.1-2.6c0,0,0,0,0,0l0,0
				c5.8,1,10.7,1.7,14.5,2.3c0,0,5.5,0.8,9.1,0.8c0.1,0,0.8,0,1.7,0c1.2,0,2.5,0,3.9,0c0.2,0,0.4,0,0.7,0c4.7,0,10.4,0.1,10.4,0.1
				C270.6,134.6,273.8,134.7,277.5,134.9z"/>
			<path class="st0" d="M269.7,146.5c-0.6,0.7-1.2,1.5-1.8,2.1c-3.1-2.1-5.8-3.6-7.9-4.5c-4.5-2.1-5.2-1.6-9.3-3.4
				c0,0-3.3-1.5-5.4-1.8c-0.1,0-0.6-0.1-1.3-0.2c-0.2,0-0.4-0.1-0.7-0.1c-0.2-0.1-0.6-0.1-1.1-0.2c-2.2-0.5-2.9-0.7-4.4-1
				c-0.7-0.2-0.9-0.2-1-0.2c0,0-0.1,0-0.1,0c-3.3-1.2-5.2-2.3-5.2-2.3c-1-0.6-2.4-1.7-3.8-3.2c4.2,1.5,8.1,2.6,8.1,2.6
				c5.3,1.4,6.9,1.5,14.5,3.2c6.5,1.5,8.8,2,11.6,3.5C265.4,142.5,267.9,144.7,269.7,146.5z"/>
		</g>
		<g>
			<path class="st1" d="M514.4,126.7c-0.4-1.4-1.1-3.3-2.3-5.5c-2.6-4.7-8.8-12.6-39.2-20c-9.5-2.3-40.2-9.2-47.1-10.7
				c-0.2,0-0.7-0.1-0.7-0.2c-14.4-3.2-49.7-7.6-134.1-13.3c-3.7-0.3-7.5-0.5-11.3-0.8"/>
			<path class="st1" d="M291.1,77.1c-3.3-3.1-9.7-8.4-19.3-11.6c-9.9-3.3-18.4-2.8-22.8-2.2c1,6.3,2.1,12.6,3.1,18.9
				c-18.3-0.5-33.7,0.8-45.2,2.2c-8.3,1-19.6,2.5-34,6.3c-15.8,4.2-28.6,9.5-37.7,13.9c0,0-0.1,0-0.1,0"/>
			<path class="st1" d="M145,102c-3.6,1.2-6.9,2.1-9.9,2.7c-3.3,0.7-6.1,1-8.3,1.2c-6.2,0.5-8.8,0-12.5,1.9c-4.4,2.3-6.5,6-9.6,11.6
				c-2.3,4-5.1,10.1-7,18.1c3.3-2.2,6.7-4.3,10.5-5.5c3.8-1.2,8.1-1.4,11.6,0.3c1.4,0.7,2,1.8,2.2,2.1c1.7,2.5,1.3,5.4,1.1,6.7
				c-0.9,6.5-7.8,10.4-8.7,10.9c2.1-0.2,14.4-1.5,22.3-12.1c3.9-5.2,5.2-10.6,5.6-14c0.1-0.6,0.1-1.2,0.2-1.6"/>
			<path class="st1" d="M303.6,151.7c-0.1,0-0.1-0.1-0.2-0.1"/>
			<path class="st1" d="M488,153.4c-1.4,0.8-2.8,1.5-4.3,2.2"/>
			<path class="st2" d="M512,137.6c-1.7,2.1-4,3.2-5.3,4.2c-5.9,4.2-12.2,8.1-18.6,11.6"/>
			<path class="st1" d="M513.1,135.8c-0.3,0.7-0.7,1.2-1.1,1.8"/>
			<path class="st1" d="M514.1,125.4c0.1,0.3,0.2,0.8,0.3,1.4c0.2,1.2,0.2,2.4,0.1,3.5"/>
			<path class="st1" d="M277.5,134.9c1.1-2.2,2-4.2,2.5-5.7"/>
			<path class="st2" d="M273.2,142c1.8-2.6,3.2-5,4.3-7.2"/>
			<path class="st1" d="M292.9,159.2c-1.2,0.7-2.5,1.4-3.9,2.2c-8.8,5-13.2,7.6-18,8.6c-3.9,0.9-14.8,2.6-29.4-5.6
				c4.9-1.4,12.5-4.3,20.1-10.3c2.3-1.8,4.3-3.7,6.1-5.6c0.7-0.7,1.3-1.4,1.9-2.1c1.2-1.4,2.3-2.9,3.3-4.3"/>
			<path class="st1" d="M314.4,131.4c-0.7,3.2-1.6,5.9-2.6,8.3c-0.4,0.9-0.8,1.8-1.2,2.6"/>
			<path class="st1" d="M227.6,131.5c-0.5-0.2-1-0.4-1.5-0.6c-6.6-2.5-11.4-7.2-16.7-10.2c-7.2-4.2-14-4.5-22.6-5
				c-13.6-0.8-24.1,2.6-32.1,5.2c-5,1.6-9.2,3.4-12.5,4.9c-0.8,0.4-1.6,0.8-2.4,1.1"/>
			<path class="st1" d="M311.5,139.7c0.1,0,0.2,0,0.3,0c28.1,1.8,56.4-3.1,83.4-11c4.2-1.2,8.4-2.5,12.7-3.1c5-0.7,10-0.4,15-0.1
				c11.3,0.7,22.6,1.4,33.9,2.1"/>
			<path class="st1" d="M277,134.6c-15.2-1.8-30.3-3.5-45.5-5.2"/>
			<path class="st2" d="M292.9,159.2c2.4,1.1,5.9,2.7,10.3,4.7c18.5,8.4,27.7,13,30.7,13.5c16.1,3,25.3,4.8,38.1,5.6
				c13.8,0.9,28.5,0.5,30.9,0.4c1.5,0,2.2-0.1,3.2-0.1c5.7-0.3,15.9-0.8,28.3-4.2c7.8-2.1,13.5-4.6,49.2-23.4c0.1,0,0.1,0,0.2-0.1
				c1.5-0.8,2.9-1.5,4.3-2.2c0,0,0.1,0,0.1,0c4.1-2.2,7.6-4,10.2-5.4c2.7-1.7,5.4-3.5,7.7-5c2.3-1.6,4.2-3,5-4.1
				c0.3-0.4,0.7-0.9,0.9-1.2c0,0,0,0,0,0c0.4-0.6,0.8-1.1,0.8-1.1s0.2-0.3,0.4-0.6c0,0,0.1-0.1,0.1-0.1c1.1-2,1.3-4.1,1.3-5.4l0,0
				c-13.1-1.6-24.2-2.2-32.3-2.4c-11.9-0.3-19.7-0.4-25.3-0.2c0,0,0,0,0,0c-7.1,0.2-10.4,0.9-13.6,2.1c-6.5,2.5-7.4,4.3-17.1,7.8
				c-5.1,1.8-12.5,4.5-22.2,5.5c-2,0.2-5.9,0.4-13.6,0.7c-4.7,0.2-8.3,0.4-12,0.5c-13.1,0.5-15.6,0.5-24.9,0.8
				c-18.9,0.6-19.8,1.1-25.3,0.6c-7.2-0.7-13.2-2-17.6-3.3c-0.4-0.1-0.8-0.2-1.1-0.3c-1.2,2.1-7.7,11.3-9.1,12.4
				c-1.2,1-1.6,1.1-4.3,2.7C294.7,158,293.7,158.7,292.9,159.2C292.9,159.2,292.9,159.2,292.9,159.2z"/>
			<path class="st2" d="M267.8,148.6c-3.1-2.1-5.8-3.6-7.9-4.5c-4.5-2.1-5.2-1.6-9.3-3.4c0,0-3.3-1.5-5.4-1.8
				c-0.1,0-0.6-0.1-1.3-0.2c-0.2,0-0.4-0.1-0.7-0.1c-0.2-0.1-0.6-0.1-1.1-0.2c-2.2-0.5-2.9-0.7-4.4-1c-0.7-0.2-0.9-0.2-1-0.2
				c0,0-0.1,0-0.1,0c-3.3-1.2-5.2-2.3-5.2-2.3c-1-0.6-2.4-1.7-3.8-3.2c0,0,0,0,0,0l0,0c5.8,1,10.7,1.7,14.5,2.3c0,0,5.5,0.8,9.1,0.8
				c0.1,0,0.8,0,1.7,0c1.2,0,2.5,0,3.9,0c0.2,0,0.4,0,0.7,0c4.7,0,10.4,0.1,10.4,0.1c2.7,0.1,5.9,0.2,9.6,0.3c0.2,0,0.4,0,0.6,0
				c-1.4,2.3-3.1,4.7-4.9,7.1c-0.1,0.1-0.1,0.1-0.2,0.2c-1.1,1.5-2.3,2.9-3.4,4.2C269.1,147.2,268.4,147.9,267.8,148.6z"/>
		</g>
	</g>
</g>
<g id="whale3" class="st3">
	<g id="XMLID_3_" class="st4">
		<g>
			<path class="st0" d="M475.7,149.8c8.1,0.8,19,2.3,32,4.9c-0.1,1.3-0.4,3.3-1.7,5.3c-0.2,0.3-0.5,0.7-0.5,0.7s-0.9,1.2-1.9,2.2
				c-1.9,2.1-7.8,5.1-13.4,8.1l0,0c-3.6,1.6-8.8,3.8-15.1,6.5c-37.2,16.1-43.1,18.1-51,19.6c-12.6,2.4-22.9,2.2-28.6,2
				c-1,0-1.8-0.1-3.2-0.1c-2.3-0.1-17.1-0.9-30.7-2.8c-12.7-1.8-21.7-4.2-37.5-8.5c-11.4-3.1-20.2-10.1-29.5-15.9
				c-5.4-3.3-9.8-6.3-12.8-8.4c0,0,0,0,0,0c0,0,0,0,0,0c3.1-1.6,5.7-3.4,8-5c0,0,0.1,0,0.1-0.1c1-0.7,1.8-1.4,3-2.3
				c0.4-0.4,0.9-0.7,1.3-1c0.3-0.3,0.7-0.6,1.1-0.9c0.2-0.2,0.4-0.3,0.6-0.5c0.4-0.4,0.9-0.7,1.3-1.2c0,0,0.1-0.1,0.1-0.1
				c0.3-0.2,0.6-0.5,0.8-0.8c0.3-0.2,0.5-0.5,0.8-0.7c0.2-0.1,0.3-0.3,0.5-0.5c6.2,2,13.4,3.9,21.5,5.2c1.6,0.2,2.7,0.4,3,0.4
				c3.6,0.4,7.3,0.3,22.3,0.9c9.3,0.4,11.7,0.6,24.9,1.2c3.6,0.2,7.3,0.3,12,0.4c7.7,0.2,11.5,0.3,13.6,0.3
				c9.8-0.3,17.3-2.3,22.6-3.7c10-2.8,11.1-4.5,17.7-6.5c3.3-1,6.6-1.4,13.7-1.1c0,0,0,0,0,0C456.1,147.9,463.9,148.6,475.7,149.8z"
				/>
			<path d="M416.8,142.9c11.2,1.6,22.4,3.1,33.7,4.7c-7.1-0.3-10.5,0.1-13.7,1.1c-6.7,2-7.7,3.7-17.7,6.5
				c-5.3,1.4-12.8,3.5-22.6,3.7c-2.1,0.1-5.9-0.1-13.6-0.3c-4.7-0.1-8.4-0.3-12-0.4c-13.1-0.5-15.5-0.8-24.9-1.2
				c-15-0.6-18.7-0.5-22.3-0.9c-0.2,0-1.4-0.2-3-0.4c-8.1-1.3-15.3-3.1-21.5-5.2c1-1,2.1-2.1,3.2-3.3l2.1,1.3
				c28,4.1,56.7,1.4,84.3-4.5c4.3-0.9,8.6-1.9,12.9-2.1C406.8,141.5,411.8,142.2,416.8,142.9z"/>
			<path class="st0" d="M285.4,161.1c2.3-1.4,2.9-1.7,4.3-2.6c-2.3,1.7-4.9,3.4-8,5C282.5,163,283.8,162.1,285.4,161.1z"/>
			<path d="M235.9,137.2c-3.8-0.9-8.6-2-14.3-3.4l0,0c-0.5-0.2-1-0.4-1.4-0.7c-6.4-3-10.8-8-15.8-11.5c-5.2-3.5-10.9-4.6-22.2-6.7
				c-5.7-1.1-11.4-1.8-32.8-2.7c-9.1-0.4-16.9-0.6-22.7-0.8c-2.3,2.6-6.1,6-11.7,8.1c-12.3,4.7-23.4-0.7-25.3-1.7
				c1.1,0.1,8.9,0.4,13.2-4.6c0.9-1,2.8-3.2,2.7-6.3c0-0.3,0.1-1.6-0.7-2.9c-2.1-3.4-5.8-5.5-9.7-6.5c-3.8-1-7.9-1-11.8-1
				C89.3,91,95,87.4,99.1,85.2c5.6-3,9.4-5,14.3-4.6c4.2,0.4,6,2.2,11.6,5.1c3.5,1.8,8.5,4,15.2,5.9c7.6-0.5,17.9-1.4,30-2.6
				c18.3-1.9,24-3.2,34.3-3.7c11.6-0.5,27-0.6,45.2,1.3c-0.5-6.3-1.1-12.7-1.6-19c4.5-0.2,13-0.1,22.6,3.9
				c9.4,3.9,15.4,9.7,18.4,13.1l0,0c82.8,12.1,118.2,19.3,132.6,23.6c0,0,0.5,0.2,0.7,0.2c6.7,2,36.8,11.2,46.1,14.3
				c32.5,10.5,36.3,19.8,37.5,22.9c1.4,3.6,1.7,6.9,1.7,9.2c-13-2.6-23.9-4.1-32-4.9c-11.8-1.2-19.7-1.9-25.2-2.2c0,0,0,0,0,0
				c-11.2-1.6-22.4-3.1-33.7-4.7c-5-0.7-10-1.4-15-1.1c-4.4,0.2-8.6,1.2-12.9,2.1c-27.7,5.9-56.3,8.6-84.3,4.5l-2.1-1.3
				c-1.1,1.2-2.2,2.3-3.2,3.3c-0.2,0.1-0.3,0.3-0.5,0.5c-0.3,0.2-0.5,0.5-0.8,0.7c-0.3,0.3-0.6,0.5-0.8,0.8c-0.1,0-0.1,0.1-0.1,0.1
				c-0.5,0.4-0.9,0.8-1.3,1.2c-0.2,0.2-0.4,0.3-0.6,0.5c-0.4,0.3-0.7,0.6-1.1,0.9c-0.4,0.3-0.8,0.7-1.3,1c-0.9,0.7-1.9,1.5-3,2.3
				c0,0-0.1,0-0.1,0.1c-1.4,0.9-2,1.2-4.3,2.6c-1.6,1-2.9,1.9-3.7,2.4c0,0,0,0,0,0c0,0,0,0,0,0c-1.8,0.9-3.7,1.8-5.8,2.6
				c-4.8,1.9-10.2,4-17,3.7c-12.1-0.5-20.6-8.1-23.8-11.4c4.6-0.6,11.1-1.9,18.2-5.4c1.2-0.6,2.4-1.3,3.6-1.9l0,0
				c1-0.5,2-1.1,3.2-1.9c1.4-0.9,2.9-2.1,4.4-3.5c0,0,0,0,0,0c2-1.8,3.5-3.7,4.7-5.2c-3.1-0.3-5.7-0.5-7.5-0.7c0,0-6.9-0.7-10.4-0.9
				c-0.2,0-0.5,0-0.7-0.1c-1.4-0.1-2.7-0.2-3.9-0.3c-0.9-0.1-1.6-0.1-1.7-0.1C241.3,138.4,235.9,137.2,235.9,137.2z"/>
			<path class="st0" d="M264.3,145.9c-1.5,1.4-3,2.5-4.4,3.5c0,0-0.1-0.1-0.1-0.1C261.4,148.2,262.9,147,264.3,145.9z"/>
			<path class="st0" d="M259.8,149.3C259.8,149.3,259.9,149.3,259.8,149.3c-1,0.8-2.1,1.4-3.1,1.9l0,0l0,0
				C257.8,150.6,258.8,149.9,259.8,149.3z"/>
			<path class="st0" d="M235.9,137.2c0,0,5.4,1.3,9,1.5c0.1,0,0.8,0,1.7,0.1c1.2,0.1,2.5,0.2,3.9,0.3c0.2,0,0.4,0,0.7,0.1
				c3.5,0.3,10.4,0.9,10.4,0.9c1.8,0.2,4.4,0.4,7.5,0.7c-1.2,1.6-2.7,3.4-4.7,5.2c0,0,0,0,0,0c-1.4,1.1-2.9,2.3-4.5,3.4
				c-1.3-1.2-2.9-2.5-4.7-3.6c-2.8-1.7-5-2.4-11.3-4.4c-7.4-2.3-9-2.5-14.2-4.3c0,0-3.9-1.4-7.9-3.2l0,0
				C227.3,135.2,232.1,136.3,235.9,137.2z"/>
			<path class="st0" d="M231.3,140.4c-0.7-0.2-0.8-0.2-1-0.3c0,0-0.1,0-0.1-0.1c-3.2-1.4-5-2.7-5-2.7c-1-0.7-2.3-1.9-3.6-3.5
				c4,1.8,7.9,3.2,7.9,3.2c5.1,1.8,6.8,2,14.2,4.3c6.4,2,8.6,2.7,11.3,4.4c1.9,1.1,3.4,2.4,4.7,3.6c-1,0.7-2,1.3-3.1,1.9
				c-0.4-0.3-2.2-1.4-3.8-2.4c-0.4-0.2-1.1-0.6-2-1c-0.3-0.1-0.5-0.3-0.9-0.4c-2.1-0.9-3.3-1.1-6.2-2.7c0,0-3.1-1.8-5.3-2.2
				c-0.1,0-0.6-0.1-1.3-0.3c-0.2-0.1-0.4-0.1-0.7-0.2c-0.2-0.1-0.6-0.2-1-0.3C233.5,141.1,232.8,140.8,231.3,140.4z"/>
		</g>
		<g>
			<path class="st1" d="M507.7,154.7c0-2.3-0.3-5.7-1.7-9.2c-1.2-3.1-5.1-12.4-37.5-22.9c-9.3-3-39.4-12.3-46.1-14.3
				c-0.2-0.1-0.7-0.2-0.7-0.2c-14.4-4.4-49.8-11.5-132.6-23.6c-3.7-0.5-7.4-1.1-11.2-1.6"/>
			<path class="st1" d="M289.1,84.4c-3-3.3-9-9.1-18.4-13.1c-9.6-4-18.1-4.2-22.6-3.9c0.5,6.3,1.1,12.7,1.6,19
				c-18.2-1.9-33.6-1.8-45.2-1.3c-10.3,0.5-16.1,1.8-34.3,3.7c-12.2,1.2-22.5,2.1-30,2.6c-1.4,0.1-2.6,0.2-3.8,0.3"/>
			<path class="st1" d="M142.4,92.1c-0.8-0.2-1.5-0.4-2.3-0.6c-6.7-1.8-11.7-4.1-15.2-5.9c-5.5-2.9-7.4-4.7-11.6-5.1
				c-4.9-0.4-8.7,1.6-14.3,4.6C95,87.4,89.3,91,83.4,96.7c4,0,8,0,11.8,1c3.8,1,7.6,3.1,9.7,6.5c0.8,1.3,0.7,2.6,0.7,2.9
				c0.1,3-1.8,5.2-2.7,6.3c-4.3,5-12.1,4.6-13.2,4.6c1.9,1,13,6.4,25.3,1.7c5.6-2.1,9.4-5.6,11.7-8.1c0.7-0.8,1.2-1.4,1.6-2"/>
			<path class="st1" d="M264.3,145.9c2.2-1.8,4-3.6,5.5-5.3c1.8-1.9,3.1-3.7,4.2-5.1"/>
			<path class="st2" d="M259.8,149.3c1.6-1.1,3.1-2.2,4.5-3.4"/>
			<path class="st1" d="M256.7,151.2c1.1-0.6,2.1-1.3,3.1-1.9"/>
			<path class="st2" d="M281.7,163.5C281.7,163.6,281.7,163.6,281.7,163.5c-1.8,0.9-3.7,1.8-5.8,2.6c-4.8,1.9-10.2,4-17,3.7
				c-12.1-0.5-20.6-8.1-23.8-11.4c4.6-0.6,11.1-1.9,18.2-5.4c1.2-0.6,2.4-1.3,3.6-1.9"/>
			<path class="st2" d="M289.7,158.5c-2.3,1.7-4.9,3.4-8,5"/>
			<path class="st2" d="M292.8,156.1c-0.9,0.7-1.9,1.5-3,2.3"/>
			<path class="st2" d="M295.1,154.2c-0.4,0.3-0.7,0.6-1.1,0.9"/>
			<path class="st2" d="M297,152.6c-0.5,0.4-0.9,0.8-1.3,1.2"/>
			<path class="st2" d="M298.8,150.9c-0.3,0.2-0.5,0.5-0.8,0.7c-0.3,0.3-0.6,0.5-0.8,0.8"/>
			<path class="st1" d="M308.2,140.4c-1.9,2.5-3.8,4.8-5.7,6.8c-1.1,1.2-2.2,2.3-3.2,3.3"/>
			<path class="st2" d="M221.6,133.8c-0.5-0.2-1-0.4-1.4-0.7c-6.4-3-10.8-8-15.8-11.5c-5.2-3.5-10.9-4.6-22.2-6.7
				c-5.7-1.1-11.4-1.8-32.8-2.7c-9.1-0.4-16.9-0.6-22.7-0.8"/>
			<path class="st1" d="M304.6,148.5c28,4.1,56.7,1.4,84.3-4.5c4.3-0.9,8.6-1.9,12.9-2.1c5-0.3,10,0.4,15,1.1
				c11.2,1.6,22.4,3.1,33.7,4.7"/>
			<path class="st1" d="M270.6,140.8c-0.2,0-0.5-0.1-0.7-0.1c-14.7-2.9-29.5-5.7-44.2-8.6"/>
			<path class="st2" d="M281.6,163.6c3,2.1,7.4,5,12.8,8.4c9.4,5.8,18.2,12.8,29.5,15.9c15.8,4.3,24.8,6.7,37.5,8.5
				c13.7,1.9,28.4,2.7,30.7,2.8c1.5,0.1,2.2,0.1,3.2,0.1c5.7,0.2,15.9,0.4,28.6-2c7.9-1.5,13.8-3.5,51-19.6c6.3-2.7,11.5-5,15.1-6.5
				l0,0c5.6-3.1,11.5-6.1,13.4-8.1c1-1.1,1.9-2.2,1.9-2.2s0.3-0.4,0.5-0.7c1.3-1.9,1.6-4,1.7-5.3c-13-2.6-23.9-4.1-32-4.9
				c-11.8-1.2-19.7-1.9-25.2-2.2c0,0,0,0,0,0c-7.1-0.3-10.5,0.1-13.7,1.1c-6.7,2-7.7,3.7-17.7,6.5c-5.3,1.4-12.8,3.5-22.6,3.7
				c-2.1,0.1-5.9-0.1-13.6-0.3c-4.7-0.1-8.4-0.3-12-0.4c-13.1-0.5-15.5-0.8-24.9-1.2c-15-0.6-18.7-0.5-22.3-0.9
				c-0.2,0-1.4-0.2-3-0.4c-8.1-1.3-15.3-3.1-21.5-5.2c-0.2,0.1-0.3,0.3-0.5,0.5c-0.3,0.3-0.5,0.5-0.8,0.7c-0.3,0.3-0.6,0.5-0.8,0.8
				c-0.1,0-0.1,0.1-0.1,0.1c-0.5,0.4-0.9,0.8-1.3,1.2c-0.2,0.2-0.4,0.3-0.6,0.5c-0.4,0.3-0.7,0.6-1.1,0.9c-0.4,0.3-0.8,0.7-1.3,1
				c-1.1,0.9-1.9,1.6-3,2.3c0,0-0.1,0-0.1,0.1c-1.4,0.9-2,1.2-4.3,2.6C283.8,162.1,282.5,163,281.6,163.6
				C281.7,163.5,281.7,163.5,281.6,163.6C281.7,163.6,281.6,163.6,281.6,163.6z"/>
			<path class="st2" d="M259.9,149.3c-1.1,0.7-2.2,1.4-3.2,1.9l0,0l0,0c-0.4-0.3-2.2-1.4-3.8-2.4c-0.4-0.2-1.1-0.6-2-1
				c-0.3-0.1-0.5-0.3-0.9-0.4c-2.1-0.9-3.3-1.1-6.2-2.7c0,0-3.1-1.8-5.3-2.2c-0.1,0-0.6-0.1-1.3-0.3c-0.2-0.1-0.4-0.1-0.7-0.2
				c-0.2-0.1-0.6-0.2-1-0.3c-2.1-0.6-2.8-0.9-4.3-1.4c-0.7-0.2-0.8-0.2-1-0.3c0,0-0.1,0-0.1-0.1c-3.2-1.4-5-2.7-5-2.7
				c-1-0.7-2.3-1.9-3.6-3.5l0,0c5.7,1.4,10.5,2.5,14.3,3.4c0,0,5.4,1.3,9,1.5c0.1,0,0.8,0,1.7,0.1c1.2,0.1,2.5,0.2,3.9,0.3
				c0.2,0,0.4,0,0.7,0.1c3.5,0.3,10.4,0.9,10.4,0.9c1.8,0.2,4.4,0.4,7.5,0.7c-1.2,1.6-2.7,3.4-4.7,5.2c0,0,0,0,0,0
				C262.8,147.3,261.3,148.4,259.9,149.3z"/>
		</g>
	</g>
</g>
<g id="whale4" class="st3">
	<g id="XMLID_5_" class="st4">
		<g>
			<path d="M301.8,147.7c-1.1,1.1-2.3,2.2-3.4,3.1c-0.1,0.1-0.3,0.2-0.4,0.4c-0.3,0.3-0.6,0.5-0.9,0.8c-0.6,0.5-1.2,1-1.7,1.4
				c-0.8,0.7-1.6,1.3-2.4,1.8c-0.3,0.2-0.7,0.5-1,0.7c-1,0.8-2.1,1.5-3.4,2.4l0,0c-1.5,0.9-2.1,1.2-4.5,2.5c-1.7,0.9-3,1.8-3.9,2.3
				c-1.8,0.8-3.8,1.6-5.9,2.3c-4.9,1.6-10.4,3.5-17.2,2.9c-12-1-20.2-9.1-23.3-12.4c4.6-0.4,11.2-1.4,18.4-4.5
				c1.3-0.6,2.5-1.1,3.6-1.8c1-0.5,2.1-1,3.2-1.7c1.4-0.8,2.9-1.9,4.5-3.2c0,0,0.1-0.1,0.1-0.1c2.1-1.7,3.7-3.5,4.9-5
				c-3.1-0.4-5.6-0.8-7.4-1c0,0-6.8-1-10.3-1.4c-0.3,0-0.5-0.1-0.7-0.1c-1.4-0.2-2.7-0.3-3.8-0.4c-0.9-0.1-1.6-0.2-1.7-0.2
				c-3.6-0.4-8.9-1.9-8.9-1.9c-3.7-1.1-8.5-2.4-14.1-4.1l0,0c-0.5-0.2-0.9-0.5-1.4-0.7c-6.2-3.3-10.4-8.5-15.3-12.2
				c-5-3.8-10.6-5.1-21.8-7.8c-5.6-1.3-11.4-2.3-32.6-4.2c-8.5-0.7-15.8-1.3-21.5-1.7c-2.9,1.8-7.1,3.7-12.5,4.3
				c-13.1,1.3-22.4-6.8-24-8.2c1,0.3,8.5,2.8,13.9-1c1.1-0.8,3.5-2.4,4.2-5.4c0.1-0.3,0.5-1.5,0.1-3c-1.2-3.8-4.2-6.8-7.6-8.8
				c-3.5-2-7.3-3-11.2-4c7.2-4,13.6-6,18.1-7.1c6.2-1.5,10.4-2.4,15-0.7c3.9,1.4,5.2,3.7,9.9,7.9c2.2,2,5.1,4.4,8.9,7
				c7.4,0.4,16.9,0.9,27.8,1c12.3,0.2,21.4,0.1,37.4-0.2c10.9-0.2,25.5-0.6,42.8-1.2c-0.2-6.4-0.5-12.7-0.7-19.1
				c4.5,0,13,0.5,22.4,5c9.2,4.4,14.9,10.4,17.8,13.9l0,0c82.2,15.9,117.2,24.7,131.4,29.7c0,0,0.5,0.2,0.7,0.2
				c6.6,2.3,36.2,12.9,45.4,16.4c31.9,12,35.3,21.5,36.4,24.6c1.3,3.6,1.4,7,1.3,9.3c-12.8-3.2-23.7-5.2-31.7-6.4
				c-11.8-1.8-19.5-2.8-25.1-3.3c0,0,0,0,0,0c-11.1-2.1-22.3-4.2-33.4-6.2c-4.9-0.9-9.9-1.8-14.9-1.8c-4.4,0-8.7,0.8-13,1.5
				c-27.9,4.6-56.7,6-84.5,0.6L301.8,147.7z"/>
			<path class="st0" d="M449.7,155c5.5,0.5,13.3,1.6,25.1,3.3c8,1.2,18.9,3.2,31.7,6.4c-0.1,1.3-0.6,3.3-2,5.2
				c-0.2,0.3-0.5,0.7-0.5,0.7s-0.9,1.2-2,2.2c-1,1-3,2.2-5.5,3.4c-2.5,1.3-5.4,2.7-8.3,4.1c-3.7,1.4-9,3.4-15.4,5.8
				c-37.9,14.3-43.9,16.1-51.9,17.2c-12.7,1.8-22.9,1.1-28.6,0.7c-1-0.1-1.8-0.1-3.2-0.3c-2.3-0.2-17-1.7-30.6-4.2
				c-12.6-2.4-21.5-5.2-37.1-10.2c-11.2-3.6-19.7-11-28.8-17.2c-5.2-3.6-9.5-6.7-12.4-8.9c3.3-1.5,6-3.2,8.4-4.8l0,0
				c1.2-0.7,2-1.4,3.4-2.4c0.3-0.3,0.7-0.5,1-0.7c0.8-0.6,1.6-1.2,2.4-1.8c0.5-0.4,1.1-0.9,1.7-1.4c0.3-0.2,0.6-0.5,0.9-0.8
				c0.1-0.1,0.3-0.2,0.4-0.4c6.1,2.3,13.2,4.5,21.2,6.2c1.6,0.3,2.7,0.5,3,0.6c3.6,0.6,7.3,0.6,22.2,1.9c9.3,0.8,11.7,1.1,24.8,2.3
				c3.6,0.3,7.3,0.6,11.9,1c7.7,0.6,11.5,0.9,13.6,0.9c9.8,0.2,17.4-1.5,22.7-2.7c10.1-2.3,11.2-4,18-5.6
				C439.2,154.6,442.6,154.3,449.7,155C449.7,154.9,449.7,155,449.7,155z"/>
			<path d="M416.3,148.7c11.1,2.1,22.3,4.2,33.4,6.2c-7.1-0.6-10.5-0.4-13.8,0.5c-6.7,1.6-7.9,3.3-18,5.6
				c-5.3,1.2-12.9,2.9-22.7,2.7c-2.1,0-5.9-0.3-13.6-0.9c-4.6-0.4-8.3-0.7-11.9-1c-13.1-1.2-15.5-1.5-24.8-2.3
				c-15-1.3-18.6-1.4-22.2-1.9c-0.2,0-1.4-0.3-3-0.6c-8-1.7-15.1-3.8-21.2-6.2c1.1-1,2.2-2,3.4-3.1l2.1,1.4
				c27.8,5.3,56.5,4,84.5-0.6c4.3-0.7,8.6-1.5,13-1.5C406.4,146.9,411.3,147.8,416.3,148.7z"/>
			<path class="st0" d="M284.1,160.8c2.4-1.3,3-1.6,4.5-2.5c-2.4,1.6-5.1,3.2-8.4,4.8C281.1,162.6,282.5,161.8,284.1,160.8z"/>
			<path class="st0" d="M268.7,139.6c-1.2,1.5-2.9,3.3-4.9,5c0,0-0.1,0.1-0.1,0.1c-1.4,1-2.9,2.1-4.6,3.1c-1.2-1.3-2.8-2.6-4.6-3.8
				c-2.7-1.8-4.8-2.6-11.1-4.9c-7.3-2.6-8.9-2.9-14-5c0,0-3.8-1.6-7.8-3.6l0,0c5.6,1.7,10.4,3,14.1,4.1c0,0,5.3,1.5,8.9,1.9
				c0.1,0,0.8,0.1,1.7,0.2c1.2,0.1,2.5,0.3,3.8,0.4c0.2,0,0.4,0.1,0.7,0.1c3.5,0.4,10.3,1.4,10.3,1.4
				C263.1,138.8,265.6,139.2,268.7,139.6z"/>
			<path class="st0" d="M263.7,144.7c-1.5,1.3-3.1,2.3-4.5,3.2c0,0-0.1-0.1-0.1-0.1C260.7,146.8,262.3,145.7,263.7,144.7z"/>
			<path class="st0" d="M259.1,147.8C259.1,147.8,259.2,147.8,259.1,147.8c-1.1,0.8-2.2,1.3-3.2,1.8
				C257,149,258.1,148.4,259.1,147.8z"/>
			<path class="st0" d="M259.1,147.8c-1,0.6-2.1,1.2-3.2,1.8c-0.4-0.3-2.1-1.5-3.7-2.6c-0.4-0.3-1.1-0.7-1.9-1.1
				c-0.3-0.1-0.5-0.3-0.8-0.4c-2.1-1-3.3-1.3-6-3c0,0-3-1.9-5.2-2.4c-0.1,0-0.6-0.1-1.3-0.3c-0.2-0.1-0.4-0.1-0.7-0.2
				c-0.2-0.1-0.6-0.2-1-0.4c-2.1-0.7-2.8-1-4.2-1.6c-0.7-0.3-0.8-0.3-1-0.3c0,0-0.1,0-0.1-0.1c-3.1-1.5-4.9-3-4.9-3
				c-0.9-0.8-2.2-2-3.4-3.7c4,2,7.8,3.6,7.8,3.6c5.1,2.1,6.7,2.3,14,5c6.3,2.3,8.5,3.1,11.1,4.9
				C256.3,145.2,257.9,146.5,259.1,147.8z"/>
		</g>
		<g>
			<path class="st1" d="M506.5,164.7c0.1-2.3,0-5.7-1.3-9.3c-1.1-3.2-4.5-12.6-36.4-24.6c-9.2-3.4-38.7-14.1-45.4-16.4
				c-0.2-0.1-0.6-0.2-0.7-0.2c-14.2-5-49.2-13.8-131.4-29.7c-3.6-0.7-7.3-1.4-11.2-2.2"/>
			<path class="st1" d="M291.4,84.4c-2.8-3.5-8.6-9.5-17.8-13.9c-9.4-4.5-17.9-5-22.4-5c0.2,6.4,0.5,12.7,0.7,19.1
				c-17.3,0.6-31.9,1-42.8,1.2c-16.1,0.3-25.1,0.5-37.4,0.2c-10.9-0.2-20.4-0.6-27.8-1c-2-0.1-3.8-0.2-5.5-0.3"/>
			<path class="st1" d="M150.1,88.8c-2.3-1.3-4.4-2.5-6.2-3.8c-3.9-2.6-6.8-5.1-8.9-7c-4.6-4.2-5.9-6.5-9.9-7.9
				c-4.6-1.7-8.8-0.8-15,0.7c-4.5,1.1-10.9,3.1-18.1,7.1c3.8,1,7.7,2.1,11.2,4c3.5,2,6.5,5,7.6,8.8c0.5,1.5,0,2.7-0.1,3
				c-0.7,2.9-3.1,4.6-4.2,5.4c-5.4,3.7-12.9,1.3-13.9,1c1.6,1.4,10.8,9.6,24,8.2c5.3-0.6,9.6-2.5,12.5-4.3c1.2-0.8,2.2-1.5,3-2.1"/>
			<path class="st1" d="M263.8,144.6c2.3-1.7,4.2-3.4,5.8-5c1.8-1.8,3.3-3.5,4.4-4.9"/>
			<path class="st2" d="M259.1,147.8c1.6-1,3.2-2,4.6-3.1"/>
			<path class="st1" d="M255.9,149.6c1.1-0.6,2.2-1.2,3.2-1.8"/>
			<path class="st2" d="M288.7,158.3c-2.4,1.6-5.1,3.2-8.4,4.8c-1.8,0.8-3.8,1.6-5.9,2.3c-4.9,1.6-10.4,3.5-17.2,2.9
				c-12-1-20.2-9.1-23.3-12.4c4.6-0.4,11.2-1.4,18.4-4.5c1.3-0.6,2.5-1.1,3.6-1.8"/>
			<path class="st2" d="M292,155.9c-1,0.8-2.1,1.5-3.4,2.4"/>
			<path class="st2" d="M298,151.2c-0.3,0.3-0.6,0.5-0.9,0.8c-0.6,0.5-1.2,1-1.7,1.4"/>
			<path class="st1" d="M307.8,141.2c-2,2.4-4,4.6-6,6.5c-1.1,1.1-2.3,2.2-3.4,3.1"/>
			<path class="st1" d="M303.9,149.1c27.8,5.3,56.5,4,84.5-0.6c4.3-0.7,8.6-1.5,13-1.5c5-0.1,10,0.9,14.9,1.8
				c11.1,2.1,22.3,4.2,33.4,6.2"/>
			<path class="st1" d="M270.3,139.8c-0.2-0.1-0.5-0.1-0.7-0.2c-14.6-3.5-29.2-7.1-43.8-10.6"/>
			<path class="st2" d="M280.3,163.1c2.9,2.2,7.2,5.4,12.4,8.9c9.1,6.2,17.6,13.6,28.8,17.2c15.6,5,24.5,7.9,37.1,10.2
				c13.6,2.6,28.3,4,30.6,4.2c1.5,0.1,2.2,0.2,3.2,0.3c5.7,0.4,15.9,1.1,28.6-0.7c8-1.1,14-2.9,51.9-17.2c6.4-2.4,11.7-4.4,15.4-5.8
				c2.9-1.4,5.8-2.8,8.3-4.1c2.5-1.3,4.5-2.5,5.5-3.4c1-1,2-2.2,2-2.2s0.3-0.4,0.5-0.7c1.4-1.9,1.8-3.9,2-5.2
				c-12.8-3.2-23.7-5.2-31.7-6.4c-11.8-1.8-19.5-2.8-25.1-3.3c0,0,0,0,0,0c-7.1-0.6-10.5-0.4-13.8,0.5c-6.7,1.6-7.9,3.3-18,5.6
				c-5.3,1.2-12.9,2.9-22.7,2.7c-2.1,0-5.9-0.3-13.6-0.9c-4.6-0.4-8.3-0.7-11.9-1c-13.1-1.2-15.5-1.5-24.8-2.3
				c-15-1.3-18.6-1.4-22.2-1.9c-0.2,0-1.4-0.3-3-0.6c-8-1.7-15.1-3.8-21.2-6.2c-0.1,0.1-0.3,0.2-0.4,0.4c-0.3,0.3-0.6,0.5-0.9,0.8
				c-0.6,0.5-1.2,1-1.7,1.4c-0.8,0.7-1.6,1.3-2.4,1.8c-0.3,0.2-0.7,0.5-1,0.7c-1.3,1-2.2,1.6-3.4,2.4l0,0c-1.5,0.9-2.1,1.2-4.5,2.5
				C282.5,161.8,281.1,162.6,280.3,163.1z"/>
			<path class="st2" d="M255.9,149.6c-0.4-0.3-2.1-1.5-3.7-2.6c-0.4-0.3-1.1-0.7-1.9-1.1c-0.3-0.1-0.5-0.3-0.8-0.4
				c-2.1-1-3.3-1.3-6-3c0,0-3-1.9-5.2-2.4c-0.1,0-0.6-0.1-1.3-0.3c-0.2-0.1-0.4-0.1-0.7-0.2c-0.2-0.1-0.6-0.2-1-0.4
				c-2.1-0.7-2.8-1-4.2-1.6c-0.7-0.3-0.8-0.3-1-0.3c0,0-0.1,0-0.1-0.1c-3.1-1.5-4.9-3-4.9-3c-0.9-0.8-2.2-2-3.4-3.7l0,0
				c5.6,1.7,10.4,3,14.1,4.1c0,0,5.3,1.5,8.9,1.9c0.1,0,0.8,0.1,1.7,0.2c1.2,0.1,2.5,0.3,3.8,0.4c0.2,0,0.4,0.1,0.7,0.1
				c3.5,0.4,10.3,1.4,10.3,1.4c1.8,0.3,4.3,0.6,7.4,1c-1.2,1.5-2.9,3.3-4.9,5c0,0-0.1,0.1-0.1,0.1c-1.5,1.3-3.1,2.3-4.5,3.2
				C258,148.6,256.9,149.1,255.9,149.6z"/>
		</g>
	</g>
</g>
<g id="whale5" class="st3">
	<g id="XMLID_4_" class="st4">
		<g>
			<path class="st0" d="M452.3,145.5c5.5,0.8,13.2,2.4,24.8,4.9c7.9,1.7,18.7,4.3,31.3,8.3c-0.2,1.3-0.8,3.3-2.3,5.1
				c-0.3,0.3-0.6,0.7-0.6,0.7s-1,1.1-2.1,2c-1.1,0.9-3.2,2-5.7,3.1c-2.6,1.1-5.6,2.3-8.5,3.5c-3.8,1.2-9.2,2.9-15.7,4.9
				c-38.7,11.9-44.8,13.3-52.9,13.9c-12.8,1-23-0.3-28.6-1.1c-1-0.1-1.7-0.3-3.2-0.5c-2.3-0.4-16.9-2.7-30.3-6.1
				c-12.5-3.2-21.1-6.6-36.4-12.5c-11.1-4.4-19.7-12.8-27.6-19c-4.2-3.3-7.7-6.1-10.1-8.2c0,0,0.1-0.1,0.1-0.1
				c1.2-0.8,2.5-1.7,4.1-2.9c0,0,0.1-0.1,0.1-0.1c2.5-1.7,3.3-2.4,4.6-3.4c1.1-0.9,1.4-1.2,2.2-1.8c0.1-0.1,0.2-0.2,0.4-0.3
				c0.3-0.3,0.7-0.6,1.1-0.8c1.2-0.9,2.7-2,4.6-3.2c6,2.7,12.9,5.3,20.8,7.5c1.5,0.4,2.7,0.7,2.9,0.8c3.6,0.8,7.2,1.1,22.1,3.3
				c9.2,1.4,11.6,1.9,24.6,3.8c3.6,0.5,7.2,1.1,11.9,1.7c7.6,1.1,11.4,1.6,13.5,1.8c9.7,0.8,17.4-0.4,22.8-1.3
				c10.2-1.7,11.5-3.3,18.3-4.5C441.9,144.4,445.2,144.4,452.3,145.5C452.3,145.4,452.3,145.4,452.3,145.5z"/>
			<path d="M160.9,48.3c4.5,2.2,11.1,5.2,19.1,8.3c14.5,5.7,25.5,10,38.5,11.4c8.4,0.9,22.8,1.2,40.8-5.2c0.1-6.4,0.3-12.7,0.5-19.1
				c4.5,0.3,13,1.3,22,6.4c8.9,4.9,14.2,11.3,16.9,15l0,0c81,21,115.4,32,129.3,37.9c0,0,0.5,0.2,0.7,0.3
				c6.5,2.7,35.3,15.2,44.3,19.2c31.1,14,33.9,23.6,34.8,26.9c1,3.7,0.9,7,0.7,9.3c-12.6-4-23.3-6.6-31.3-8.3
				c-11.6-2.5-19.3-4-24.8-4.9c0,0,0,0,0,0c-7-1.1-10.4-1-13.8-0.4c-6.8,1.2-8.1,2.8-18.3,4.5c-5.4,0.9-13.1,2.1-22.8,1.3
				c-2-0.2-5.9-0.7-13.5-1.8c-4.6-0.6-8.3-1.2-11.9-1.7c-13-2-15.4-2.4-24.6-3.8c-14.9-2.3-18.5-2.5-22.1-3.3
				c-0.2-0.1-1.4-0.3-2.9-0.8c-7.9-2.1-14.9-4.8-20.8-7.5c-1.9,1.2-3.4,2.3-4.6,3.2c-0.4,0.3-0.7,0.6-1.1,0.8
				c-0.1,0.1-0.2,0.2-0.4,0.3c-2.6,2.1-4.9,3.8-6.8,5.2c0,0-0.1,0.1-0.1,0.1c-0.8,0.6-2.2,1.6-4.1,2.9c0,0-0.1,0.1-0.1,0.1
				c-4.2,2.8-6.4,3.7-8.5,4.3c-5.8,1.7-10.9,1.8-14.8,1.8c-6.5,0-11.9-0.9-15.7-1.8c4-5.1,8.5-10.3,13.5-15.7c1-1,1.9-2.1,2.9-3.1
				c0.1,0.1,0.2,0.2,0.3,0.3c0.6-0.7,1.2-1.5,1.8-2.2c1.1-1.3,2.3-2.5,3.6-3.9c0.3-0.3,0.6-0.6,0.9-0.9c1.7-1.6,3.4-3.1,5-4.4
				c-0.1,0-0.2,0-0.3-0.1c-3.3-0.6-6-1.2-7.8-1.6c0,0-6.5-1.3-10.2-2c-0.2,0-0.5-0.1-0.7-0.1c-1.4-0.2-2.6-0.5-3.8-0.7
				c-0.9-0.2-1.6-0.3-1.7-0.3c-3.6-0.6-8.8-2.4-8.8-2.4c-3.7-1.3-8.3-2.9-13.8-5c-0.9-0.5-1.4-0.8-1.4-0.8
				c-4.4-2.7-13.4-4.2-20.3-6.6c-6.5-2.2-5.1-3-23.6-13.7c-12.1-7-13.6-7.1-19.9-11.4c-7.6-5.1-13.2-10.1-16.8-13.6
				c-2.8,1.1-9,3.1-16.6,1.7c-13-2.4-19.5-12.9-20.7-14.7c0.9,0.6,7.4,5.1,13.6,3c1.3-0.4,4-1.3,5.5-3.9c0.1-0.2,0.9-1.3,0.9-2.9
				c0-4-2.1-7.7-4.8-10.6s-6.2-5-9.6-7c8-1.8,14.7-1.9,19.4-1.6c6.4,0.3,10.6,0.6,14.6,3.6c3.4,2.5,4,5,7.2,10.4
				C155.5,41.3,157.7,44.6,160.9,48.3z"/>
			<path class="st0" d="M284.6,144.4c1.9-1.3,3.3-2.3,4.1-2.9C287.1,142.6,285.8,143.6,284.6,144.4z"/>
			<path class="st0" d="M273.1,118.9c0.1,0,0.2,0,0.3,0.1c-1.6,1.3-3.3,2.7-5,4.4C270,121.8,271.6,120.3,273.1,118.9z"/>
			<path class="st0" d="M273.1,118.9c-1.5,1.4-3.1,2.9-4.7,4.5c-0.3,0.3-0.6,0.6-0.9,0.9c-1.2,1.2-2.5,2.4-3.7,3.7
				c-1.3-1.8-3.2-3.8-5.6-5.6c-2.6-2-4.7-2.9-10.8-5.6c-7.1-3.1-8.7-3.4-13.6-5.8c-2.3-1.1-4.5-2.3-6.1-3.3c-0.5-0.3-1-0.6-1.4-0.8
				c5.5,2,10.2,3.7,13.8,5c0,0,5.2,1.8,8.8,2.4c0.1,0,0.8,0.1,1.7,0.3c1.2,0.2,2.5,0.4,3.8,0.7c0.2,0,0.4,0.1,0.7,0.1
				c3.7,0.7,10.2,2,10.2,2C267.1,117.7,269.8,118.3,273.1,118.9z"/>
			<path class="st0" d="M267.5,124.2c-1.3,1.3-2.5,2.6-3.6,3.9c0,0-0.1-0.1-0.1-0.2C265,126.7,266.3,125.4,267.5,124.2z"/>
			<path class="st0" d="M263.8,127.9c0,0.1,0.1,0.1,0.1,0.2c-0.6,0.8-1.3,1.5-1.8,2.2c-0.1-0.1-0.2-0.2-0.3-0.3
				C262.4,129.3,263.1,128.6,263.8,127.9z"/>
			<path class="st0" d="M258.2,122.3c2.4,1.9,4.3,3.9,5.6,5.6c-0.7,0.7-1.4,1.4-2,2.1c-3.1-2.6-5.4-4.4-6-4.8c-0.5-0.4-1-0.7-1-0.7
				c-0.3-0.2-0.5-0.4-0.9-0.6c-0.3-0.2-0.5-0.3-0.8-0.5c-2-1.2-3.2-1.5-5.8-3.4c0,0-2.9-2.1-5-2.7c-0.1,0-0.6-0.2-1.3-0.4
				c-0.2-0.1-0.4-0.2-0.7-0.3c-0.2-0.1-0.5-0.2-1-0.4c-2-0.9-2.7-1.2-4.1-1.8c-0.7-0.3-0.8-0.3-1-0.4c0,0-0.1,0-0.1-0.1
				c-3-1.7-4.7-3.3-4.7-3.3c-0.9-0.8-2.1-2.1-3.2-3.9c0.4,0.2,0.9,0.5,1.4,0.8c1.7,0.9,3.9,2.2,6.1,3.3c4.9,2.4,6.5,2.7,13.6,5.8
				C253.5,119.4,255.7,120.3,258.2,122.3z"/>
		</g>
		<g>
			<path class="st1" d="M508.4,158.7c0.3-2.3,0.4-5.6-0.7-9.3c-0.9-3.2-3.7-12.9-34.8-26.9c-8.9-4-37.8-16.5-44.3-19.2
				c-0.2-0.1-0.6-0.3-0.7-0.3c-13.8-5.9-48.3-16.8-129.3-37.9c-3.6-0.9-7.2-1.9-11-2.9"/>
			<path class="st1" d="M298.7,65.1c-2.6-3.7-8-10.1-16.9-15c-9.1-5-17.5-6.1-22-6.4c-0.1,6.4-0.3,12.7-0.5,19.1
				c-18,6.4-32.4,6.1-40.8,5.2c-13-1.4-24-5.7-38.5-11.4c-8.1-3.2-14.6-6.2-19.1-8.3"/>
			<path class="st1" d="M165.4,53.4c-1.7-1.7-3.2-3.4-4.6-5c-3.1-3.7-5.4-7.1-6.9-9.7c-3.2-5.4-3.8-7.9-7.2-10.4
				c-4-2.9-8.3-3.2-14.6-3.6c-4.6-0.2-11.3-0.1-19.4,1.6c3.4,2.1,6.8,4.2,9.6,7s4.8,6.6,4.8,10.6c0,1.5-0.8,2.6-0.9,2.9
				c-1.5,2.6-4.3,3.5-5.5,3.9c-6.2,2-12.8-2.4-13.6-3c1.1,1.8,7.7,12.3,20.7,14.7c7.6,1.4,13.8-0.6,16.6-1.7"/>
			<path class="st1" d="M273.2,118.8c1.7-1.6,3.3-3.1,5-4.5"/>
			<path class="st2" d="M268.4,123.3c1.6-1.5,3.1-3,4.7-4.5c0,0,0.1-0.1,0.1-0.1"/>
			<path class="st2" d="M284.5,144.5c-4.2,2.8-6.4,3.7-8.5,4.3c-5.8,1.7-10.9,1.8-14.8,1.8c-6.5,0-11.9-0.9-15.7-1.8
				c4-5.1,8.5-10.3,13.5-15.7c1-1,1.9-2.1,2.9-3.1c0.7-0.7,1.4-1.4,2-2.1c1.2-1.3,2.5-2.5,3.7-3.7"/>
			<path class="st2" d="M288.7,141.5c-1.5,1.1-2.9,2.1-4.1,2.9"/>
			<path class="st2" d="M295.6,136.2c-2.6,2.1-4.9,3.8-6.8,5.2"/>
			<path class="st1" d="M311.6,122.8c-5.7,5-10.7,9.1-14.6,12.2"/>
			<path class="st1" d="M307.2,130.5c27.4,7.1,56.2,7.5,84.3,4.7c4.3-0.4,8.7-1,13.1-0.7c5,0.3,9.9,1.5,14.8,2.7
				c11,2.8,22,5.6,33,8.3"/>
			<path class="st1" d="M274.2,119.1c-0.3-0.1-0.7-0.2-1-0.3c-14.2-4.4-28.5-8.8-42.7-13.3"/>
			<path class="st2" d="M284.5,144.5c2.4,2,5.8,4.9,10.1,8.2c7.9,6.2,16.5,14.6,27.6,19c15.2,6,23.9,9.4,36.4,12.5
				c13.4,3.4,28,5.8,30.3,6.1c1.4,0.2,2.2,0.3,3.2,0.5c5.6,0.8,15.8,2.1,28.6,1.1c8-0.7,14.1-2,52.9-13.9c6.5-2,11.9-3.7,15.7-4.9
				c2.9-1.2,6-2.4,8.5-3.5c2.6-1.1,4.6-2.2,5.7-3.1c1.1-0.9,2.1-2,2.1-2s0.3-0.4,0.6-0.7c1.5-1.8,2.1-3.8,2.3-5.1
				c-12.6-4-23.3-6.6-31.3-8.3c-11.6-2.5-19.3-4-24.8-4.9c0,0,0,0,0,0c-7-1.1-10.4-1-13.8-0.4c-6.8,1.2-8.1,2.8-18.3,4.5
				c-5.4,0.9-13.1,2.1-22.8,1.3c-2-0.2-5.9-0.7-13.5-1.8c-4.6-0.6-8.3-1.2-11.9-1.7c-13-2-15.4-2.4-24.6-3.8
				c-14.9-2.3-18.5-2.5-22.1-3.3c-0.2-0.1-1.4-0.3-2.9-0.8c-7.9-2.1-14.9-4.8-20.8-7.5c-1.9,1.2-3.4,2.3-4.6,3.2
				c-0.4,0.3-0.7,0.6-1.1,0.8c-0.1,0.1-0.2,0.2-0.4,0.3c-0.8,0.6-1.1,1-2.2,1.8c-1.3,1-2.2,1.6-4.6,3.4c0,0-0.1,0.1-0.1,0.1
				c-0.8,0.6-2.2,1.6-4.1,2.9C284.6,144.4,284.5,144.5,284.5,144.5z"/>
			<path class="st2" d="M226.3,106.8c5.5,2,10.2,3.7,13.8,5c0,0,5.2,1.8,8.8,2.4c0.1,0,0.8,0.1,1.7,0.3c1.2,0.2,2.5,0.4,3.8,0.7
				c0.2,0,0.4,0.1,0.7,0.1c3.7,0.7,10.2,2,10.2,2c1.8,0.4,4.5,0.9,7.8,1.6c0.1,0,0.2,0,0.3,0.1c-1.6,1.3-3.3,2.7-5,4.4
				c-0.3,0.3-0.6,0.6-0.9,0.9c-1.3,1.3-2.5,2.6-3.6,3.9c-0.6,0.8-1.3,1.5-1.8,2.2c-0.1-0.1-0.2-0.2-0.3-0.3c-3.1-2.6-5.4-4.4-6-4.8
				c-0.5-0.4-1-0.7-1-0.7c-0.3-0.2-0.5-0.4-0.9-0.6c-0.3-0.2-0.5-0.3-0.8-0.5c-2-1.2-3.2-1.5-5.8-3.4c0,0-2.9-2.1-5-2.7
				c-0.1,0-0.6-0.2-1.3-0.4c-0.2-0.1-0.4-0.2-0.7-0.3c-0.2-0.1-0.5-0.2-1-0.4c-2-0.9-2.7-1.2-4.1-1.8c-0.7-0.3-0.8-0.3-1-0.4
				c0,0-0.1,0-0.1-0.1c-3-1.7-4.7-3.3-4.7-3.3C228.6,109.9,227.4,108.7,226.3,106.8"/>
			<path class="st1" d="M144.4,60.8c3.6,3.5,9.2,8.5,16.8,13.6c6.3,4.3,7.8,4.5,19.9,11.4c18.5,10.7,17,11.5,23.6,13.7
				c6.9,2.3,15.8,3.9,20.3,6.6c0,0,0.5,0.3,1.4,0.8"/>
		</g>
	</g>
</g>
</svg>
