<?xml version="1.0" encoding="utf-8"?>
<!-- Generator: Adobe Illustrator 19.0.0, SVG Export Plug-In . SVG Version: 6.00 Build 0)  -->
<svg version="1.1" id="레이어_1" xmlns="http://www.w3.org/2000/svg" xmlns:xlink="http://www.w3.org/1999/xlink" x="0px"
	 y="0px" viewBox="-760 2482.4 1200 140" style="enable-background:new -760 2482.4 1200 140;" xml:space="preserve">
<style type="text/css">
	.st0{display:none;}
	.st1{display:inline;}
</style>
<g id="레이어_1_1_" class="st0">
	<g id="XMLID_1_" class="st1">
		<g>
			<path d="M-190.9,2563.4c-0.9-0.5-1.8-1.1-2.7-1.7c-6.5-4.5-11.9-10.5-16.4-17c-1.2-1.7-2.3-3.6-2.2-5.7c2.9,0.7,6,0.2,8.6-1.2
				c-3.6-3.2-6.8-6.8-9.6-10.8c-2.4-3.5-4.5-7.7-3.7-11.8c2.8,0.9,5.8,1.3,8.7,0.9c-4.4-4.2-8-9.3-10.6-14.8
				c-0.7-1.6-1.3-3.5-0.2-4.9c16.7,8.1,33.6,16.2,51.6,20.8c9.5,2.4,19.4,3.8,28.2,8.1c13.4,6.5,23.3,19.8,25.9,34.4l0.6-0.1
				c10.8-0.2,22.2-0.2,31.6,5.1c3.3,1.8,6.2,4.3,9.7,5.6c3.4,1.3,7.1,1.5,10.7,1.7c-2.6,5.7-8.5,9.6-14.7,10c-1.6,0.1-3.2,0-4.8,0.3
				c-2.7,0.5-4.5,1.8-5.2,2.2c-4.2,2.6-8.5,2.3-13.5,3.3c-7.2,1.4-10.4,4.4-15.8,7.2c-20.2,10.2-44.9,3.6-48.7,2.5
				c-8.4-2.4-7.9-4-17.7-6.7c-12.8-3.5-24-3.7-31.6-3.4c-4-0.4-8.2-0.9-12.5-1.7c-12.6-2.2-23.6-5.6-32.9-9.3
				c3.5-1.8,6.9-3.6,10.4-5.4c-1.1-0.8-2.6-2-3.9-3.9c-2.3-3.3-2.8-6.6-3-8.2c4.3,1.3,8.6,2.5,12.9,3.8c0.3-4.3,0.7-8.6,1-12.9
				c2,3.6,5.6,8.8,11.8,12.8C-212.2,2573-192.7,2564.3-190.9,2563.4z"/>
		</g>
	</g>
</g>
<g id="레이어_2" class="st0">
	<g id="XMLID_2_" class="st1">
		<g>
			<path d="M-199,2555.8c-6.7-0.7-13.3-3.1-19-6.8c1.6-0.7,3-1.6,4.3-2.7c-3.6-0.8-7-2.9-9.4-5.7c2.7-0.9,5.3-2.2,7.6-3.9
				c-3.2-0.6-6.3-1.6-9.3-2.8c8.9-5.8,20.1-6.8,30.8-6.6c9.9,0.2,19.8,1.3,29.4,3.9c13.5,3.6,26.1,10,39.2,14.9
				c5.9,2.2,12.3,4.2,18.4,2.9c9.1,0,18.2,0.8,26.1,5.1c3.3,1.8,6.2,4.3,9.7,5.6c3.4,1.3,7.1,1.5,10.7,1.7c-2.6,5.7-8.5,9.6-14.7,10
				c-1.6,0.1-3.2,0-4.8,0.3c-2.7,0.5-4.5,1.8-5.2,2.2c-4.2,2.6-8.5,2.3-13.5,3.3c-7.2,1.4-10.4,4.4-15.8,7.2
				c-20.2,10.2-44.9,3.6-48.7,2.5c-8.4-2.4-7.9-4-17.7-6.7c-12.8-3.5-24-3.7-31.6-3.4c-4-0.4-8.2-0.9-12.5-1.7
				c-12.6-2.2-23.6-5.6-32.9-9.3c3.5-1.8,6.9-3.6,10.4-5.4c-1.1-0.8-2.6-2-3.9-3.9c-2.3-3.3-2.8-6.6-3-8.2c4.3,1.3,8.6,2.5,12.9,3.8
				c0.3-4.3,0.7-8.6,1-12.9c2,3.6,5.6,8.8,11.8,12.8C-218.3,2558.8-206.6,2557.8-199,2555.8z"/>
		</g>
	</g>
</g>
<g id="레이어_3" class="st0">
	<g id="XMLID_3_" class="st1">
		<g>
			<path d="M-112.3,2543.1c10.8-0.2,22.1-0.2,31.5,5.1c3.3,1.8,6.2,4.3,9.7,5.6c3.4,1.3,7.1,1.5,10.7,1.7c-2.6,5.7-8.5,9.6-14.7,10
				c-1.6,0.1-3.2,0-4.8,0.3c-2.7,0.5-4.5,1.8-5.2,2.2c-4.2,2.6-8.5,2.3-13.5,3.3c-7.2,1.4-10.4,4.4-15.8,7.2
				c-12.3,6.2-26.3,6.2-36.2,5c-6.3-0.8-11-2-12.5-2.5c-8.4-2.4-7.9-4-17.7-6.7c-12.8-3.5-24-3.7-31.6-3.4c-0.1,0-0.3,0-0.4,0
				c-3.9-0.4-7.9-0.9-12.1-1.7c-12.6-2.2-23.6-5.6-32.9-9.3c3.5-1.8,6.9-3.6,10.4-5.4c-1.1-0.8-2.6-2-3.9-3.9
				c-2.3-3.3-2.8-6.6-3-8.2c4.3,1.3,8.6,2.5,12.9,3.8c0.3-4.3,0.7-8.6,1-12.9c2,3.6,5.6,8.8,11.8,12.8c14.9,9.4,32.2,3.2,36.8,1.3
				l-0.1-0.2c4.3-2.7,8.6-5.4,13.5-6.7c2.7-0.7,5.6-1,8.4-1.2c12.4-1,24.9-1.6,37.2,0.1c3.9,0.5,7.7,1.3,11.5,2
				C-118.4,2541.9-115.4,2542.5-112.3,2543.1z"/>
			<path d="M-163.3,2581c1.5,0.4,6.2,1.7,12.5,2.5c-5.7,3.7-11.9,6.5-18.3,8.6c-15.6,5-32.4,5.4-48.7,3.5c3.5-1.9,7-3.8,10.5-5.7
				c-5.9,0-12.4-0.1-16.8-4.1c4.8-0.8,9.6-2.2,14.1-4c-3.8-1.6-7.9-2.7-12-3.2c3-2.5,6-5.1,9-7.6l0,0c0.1,0,0.3,0,0.4,0
				c7.5-0.4,18.7-0.1,31.6,3.4C-171.2,2576.9-171.8,2578.6-163.3,2581z"/>
		</g>
	</g>
</g>
<g id="레이어_6">
	<g id="XMLID_5_">
		<g>
			<path d="M319.4,2563.6c6.2-4,9.8-9.2,11.8-12.8c0.3,4.3,0.7,8.6,1,12.9c4.3-1.3,8.6-2.5,12.9-3.8c-0.2,1.6-0.7,4.9-3,8.2
				c-1.3,1.9-2.8,3.1-3.9,3.9c3.5,1.8,6.9,3.6,10.4,5.4c-9.3,3.7-20.3,7.1-32.9,9.3c-4.3,0.8-8.5,1.3-12.5,1.7
				c-7.6-0.3-18.8-0.1-31.6,3.4c-9.8,2.7-9.3,4.3-17.7,6.7c-3.8,1.1-28.5,7.7-48.7-2.5c-5.4-2.8-8.6-5.8-15.8-7.2
				c-5-1-9.3-0.7-13.5-3.3c-0.7-0.4-2.5-1.7-5.2-2.2c-1.6-0.3-3.2-0.2-4.8-0.3c-6.2-0.4-12.1-4.3-14.7-10c3.6-0.2,7.3-0.4,10.7-1.7
				c3.5-1.3,6.4-3.8,9.7-5.6c9.4-5.3,20.8-5.3,31.6-5.1l0.6,0.1c2.6-14.6,12.5-27.9,25.9-34.4c8.8-4.3,18.7-5.7,28.2-8.1
				c18-4.6,34.9-12.7,51.6-20.8c1.1,1.4,0.5,3.3-0.2,4.9c-2.6,5.5-6.2,10.6-10.6,14.8c2.9,0.4,5.9,0,8.7-0.9
				c0.8,4.1-1.3,8.3-3.7,11.8c-2.8,4-6,7.6-9.6,10.8c2.6,1.4,5.7,1.9,8.6,1.2c0.1,2.1-1,4-2.2,5.7c-4.5,6.5-9.9,12.5-16.4,17
				c-0.9,0.6-1.8,1.2-2.7,1.7C283.2,2565.3,302.7,2574,319.4,2563.6z"/>
		</g>
	</g>
	<g id="XMLID_6_">
		<g>
			<path d="M49.1,2550.8c0.4,4.3,0.7,8.6,1.1,12.9c4.3-1.3,8.6-2.5,12.9-3.8c-0.2,1.6-0.7,4.9-3,8.2c-1.3,1.9-2.8,3.1-3.9,3.9
				c3.4,1.8,6.9,3.6,10.4,5.4c-9.3,3.7-20.3,7.1-32.9,9.3c-4.3,0.8-8.5,1.3-12.5,1.7c-7.6-0.3-18.8-0.1-31.6,3.4
				c-9.9,2.6-9.3,4.3-17.8,6.7c-3.8,1.1-28.5,7.7-48.7-2.5c-5.4-2.7-8.6-5.8-15.8-7.2c-5.1-1-9.3-0.7-13.5-3.3
				c-0.7-0.4-2.5-1.7-5.2-2.2c-1.6-0.3-3.2-0.2-4.8-0.3c-6.2-0.4-12.1-4.4-14.7-10c3.7-0.3,7.3-0.5,10.7-1.8
				c3.5-1.3,6.4-3.8,9.7-5.6c7.9-4.4,17.1-5.1,26.2-5.1l0,0c6.1,1.2,12.4-0.7,18.3-2.9c13.1-5,25.7-11.4,39.2-15
				c9.5-2.6,19.5-3.7,29.4-3.9c10.7-0.2,21.9,0.8,30.8,6.6c-3,1.3-6.1,2.2-9.3,2.8c2.3,1.7,4.9,3,7.6,3.9c-2.4,2.8-5.8,4.9-9.4,5.7
				c1.3,1.1,2.7,2,4.3,2.7c-5.6,3.7-12.2,6-18.9,6.8c7.6,1.9,19.2,3,29.7-3.6C43.7,2559.6,47.3,2554.4,49.1,2550.8z"/>
		</g>
	</g>
	<g id="XMLID_4_">
		<g>
			<path d="M-309.8,2586.1c8.5-2.3,8-4,17.8-6.7c12.9-3.5,24.1-3.8,31.6-3.4c0.1,0,0.3,0,0.4,0l0,0c3,2.5,6,5.1,9,7.6
				c-4.1,0.5-8.2,1.6-12,3.2c4.5,1.8,9.3,3.2,14.1,4c-4.4,3.9-10.9,4.1-16.8,4.1c3.5,1.9,7,3.8,10.5,5.7
				c-16.3,1.8-33.1,1.4-48.7-3.6c-6.5-2.1-12.7-5-18.4-8.6C-316,2587.6-311.3,2586.4-309.8,2586.1z"/>
			<path d="M-221.6,2555.8c-1.3,1.9-2.8,3.1-3.9,3.9c3.4,1.8,6.9,3.6,10.4,5.4c-9.3,3.7-20.3,7.1-32.9,9.3
				c-4.3,0.8-8.3,1.3-12.2,1.7c-0.1,0-0.3,0-0.4,0c-7.6-0.3-18.8-0.1-31.6,3.4c-9.9,2.7-9.3,4.3-17.8,6.7c-1.5,0.5-6.2,1.7-12.5,2.5
				c-9.9,1.2-23.9,1.2-36.2-5c-5.4-2.8-8.6-5.8-15.8-7.2c-5.1-1-9.3-0.7-13.5-3.3c-0.7-0.4-2.5-1.7-5.2-2.2
				c-1.5-0.4-3.2-0.2-4.8-0.3c-6.2-0.4-12.1-4.4-14.7-10c3.6-0.3,7.3-0.5,10.7-1.8c3.5-1.3,6.4-3.8,9.7-5.6
				c9.4-5.3,20.7-5.3,31.5-5.1c3-0.6,6.1-1.2,9.1-1.8c3.8-0.7,7.6-1.5,11.5-2c12.3-1.7,24.8-1.1,37.2-0.1c2.8,0.2,5.7,0.5,8.4,1.2
				c4.9,1.3,9.3,4,13.5,6.7l-0.1,0.2c4.6,1.9,21.9,8.1,36.8-1.3c6.2-4,9.8-9.2,11.8-12.8c0.4,4.3,0.8,8.6,1.1,12.9
				c4.3-1.3,8.6-2.5,12.9-3.8C-218.8,2549-219.3,2552.3-221.6,2555.8z"/>
		</g>
	</g>
	<g id="XMLID_7_">
		<g>
			<path d="M-640.5,2596c-5.4-2.7-8.6-5.8-15.8-7.2c-5-1-9.3-0.7-13.5-3.3c-0.7-0.4-2.5-1.7-5.2-2.2c-1.5-0.3-3.2-0.2-4.8-0.3
				c-6.2-0.4-12.1-4.4-14.7-10c3.6-0.3,7.3-0.5,10.7-1.8c3.5-1.3,6.4-3.8,9.7-5.6c7.9-4.4,17.1-5.1,26.2-5.1
				c6,1.2,12.4-0.7,18.3-2.9c13.1-5,25.7-11.4,39.2-15c9.5-2.6,19.5-3.7,29.4-3.9c10.7-0.2,21.9,0.8,30.8,6.6
				c-3,1.3-6.1,2.2-9.3,2.8c2.3,1.7,4.9,3,7.6,3.9c-2.4,2.8-5.8,4.9-9.4,5.7c1.3,1.1,2.7,2,4.3,2.7c-5.6,3.7-12.2,6.1-18.9,6.8
				c7.6,1.9,19.2,3,29.7-3.6c6.2-4,9.8-9.2,11.8-12.8c0.4,4.3,0.8,8.6,1.1,12.9c4.3-1.3,8.6-2.5,12.9-3.8c-0.2,1.6-0.7,4.9-3,8.2
				c-1.3,1.9-2.8,3.1-3.9,3.9c3.4,1.8,6.9,3.6,10.4,5.4c-9.3,3.7-20.3,7.1-32.9,9.3c-4.3,0.8-8.5,1.3-12.5,1.7
				c-7.6-0.3-18.8-0.1-31.6,3.4c-9.9,2.6-9.3,4.3-17.8,6.7C-595.5,2599.6-620.2,2606.1-640.5,2596z"/>
		</g>
	</g>
</g>
<g id="레이어_5" class="st0">
	<g class="st1">
		<g>
			<path d="M32.3,2502.2c-2.3,1.3-3.6,3.3-5.2,5.3c-2.8,3.6-5.6,7.2-8.5,10.8c-5.3,6.5-10.9,12.7-16.6,18.8
				c-0.9,0.9,0.5,2.4,1.4,1.4c5.3-5.6,10.5-11.4,15.5-17.4c2.4-2.9,4.7-5.8,7-8.7c2.2-2.9,4.3-6.7,7.5-8.5
				C34.4,2503.3,33.4,2501.5,32.3,2502.2L32.3,2502.2z"/>
		</g>
	</g>
	<g class="st1">
		<g>
			<path d="M10,2528.4c4.3-1,8.9,1.1,13,2.3c3.8,1.1,7.6,2.3,11.5,3.4c1.2,0.4,1.8-1.6,0.5-1.9c-5.1-1.5-10.2-3.1-15.3-4.6
				c-3.5-1-6.6-2-10.2-1.2C8.2,2526.7,8.7,2528.7,10,2528.4L10,2528.4z"/>
		</g>
	</g>
	<g class="st1">
		<g>
			<path d="M39.8,2510.3c0.7,8.6,1.4,17.1,2.1,25.7c0.1,1.3,2.1,1.3,2,0c-0.7-8.6-1.4-17.1-2.1-25.7
				C41.7,2509.1,39.7,2509.1,39.8,2510.3L39.8,2510.3z"/>
		</g>
	</g>
	<g class="st1">
		<g>
			<path d="M24.8,2540.7c1.1,2.9,2.3,5.8,3.6,8.7c0.5-0.4,1-0.8,1.6-1.2c-3.6-3.3,6.4-7.9,8.7-7.6c1.2-0.6,1.8-0.2,1.8,1.2
				c0.7,0.9,0.7,1.9,0.1,2.9c-0.3,1.9-1.5,3.7-2.4,5.4c-0.4,0.8,0.3,1.7,1.1,1.5c3.1-0.7,5.9-1.9,8.6-3.6c1.1-0.7,0.1-2.4-1-1.7
				c-2.5,1.7-5.1,2.8-8.1,3.4c0.4,0.5,0.8,1,1.1,1.5c2.8-4.8,6.7-14-2.4-12.4c-3.7,0.7-14.5,5.9-9,10.9c0.9,0.8,2-0.2,1.6-1.2
				c-1.2-2.7-2.3-5.5-3.4-8.2C26.3,2539,24.4,2539.5,24.8,2540.7L24.8,2540.7z"/>
		</g>
	</g>
	<g class="st1">
		<g>
			<path d="M63,2508.8c1.2,3.5,0.8,6.8-1.4,9.8c-0.7,0.9,0.8,2.1,1.6,1.2c3.2-3.6,8.8-8,10.8-0.6c0.3,1.3,0.1,2.6,1,3.7
				c2.4,2.7,5.8-0.3,7.4-2.5c1.5-2.1,2-4.1-0.7-5.3c-3.3-1.4-7.2,0.2-9.4,2.8c-0.8,1,0.6,2.4,1.4,1.4c1.3-1.5,3.6-3.1,5.7-2.6
				c2.4,0.5,2.1,1.9,0.8,3.3c-0.6,0.5-1.2,1-1.8,1.5c-0.8-0.8-1.6-1.5-2.4-2.3c-1-1.9,0-3.5-2.2-5c-4.5-3.2-9.2,0.9-12,4.2
				c0.5,0.4,1,0.8,1.6,1.2c2.4-3.5,3-7.4,1.6-11.3C64.6,2507.1,62.6,2507.6,63,2508.8L63,2508.8z"/>
		</g>
	</g>
	<g class="st1">
		<g>
			<path d="M61.3,2535.5c-0.1,0.1-0.2,0.2-0.3,0.3c-0.3,0.4-0.4,0.8-0.2,1.2c0.1,0.1,0.1,0.3,0.2,0.4c0.2,0.4,0.7,0.5,1.1,0.5
				c2.3-0.3,4.4-1.7,6.6-2.7c3.2-1.5,6.5-3,9.7-4.5c6.2-2.9,12.4-5.8,18.6-8.7c1.2-0.5,0.2-2.3-1-1.7c-5.6,2.6-11.2,5.2-16.8,7.8
				c-5.2,2.4-12.7,4.5-16.5,8.8C63.6,2536,62.2,2534.5,61.3,2535.5L61.3,2535.5z"/>
		</g>
	</g>
	<g class="st1">
		<g>
			<path d="M87.6,2507.3c3.7,11.7,7.5,23.4,11.2,35.2c0.4,1.2,2.3,0.7,1.9-0.5c-3.7-11.7-7.5-23.4-11.2-35.2
				C89.1,2505.6,87.2,2506.1,87.6,2507.3L87.6,2507.3z"/>
		</g>
	</g>
	<g class="st1">
		<g>
			<path d="M116.1,2511.1c-2.8-2.4-8.1-2.5-10.1,1.1c-0.8,1.4-0.4,3,1.1,3.7c1.5,0.6,3.3,0.2,4.8-0.4c3.1-1.4,6.8-5.3,3-8.2
				c-4-3.1-8.1,1-10.4,4.1c-0.8,1,1,2,1.7,1c1.4-1.8,3.2-4.4,5.8-4.1c1.2,0.1,2.3,0.8,2.3,2.1c0,1.3-1.3,2.2-2.3,2.8
				c-0.8,0.5-1.6,0.9-2.5,1c-1.3,0.2-2.5-0.2-1.3-1.5c1.6-1.8,4.8-1.6,6.5-0.1C115.6,2513.4,117.1,2512,116.1,2511.1L116.1,2511.1z"
				/>
		</g>
	</g>
	<g class="st1">
		<g>
			<path d="M101.4,2523.5c0,0.2-0.1,0.4-0.1,0.5c-0.1,0.5,0.1,0.8,0.5,1.1c2.5,1.9,6.1-0.9,8.4-2.1c5.1-2.5,10.1-5.3,15-8.4
				c1.1-0.7,0.1-2.4-1-1.7c-3.2,2-6.5,3.9-9.9,5.8c-1.4,0.8-2.9,1.5-4.4,2.3c-0.8,0.4-6.4,2.5-6.5,3
				C103.6,2522.8,101.6,2522.3,101.4,2523.5L101.4,2523.5z"/>
		</g>
	</g>
	<g class="st1">
		<g>
			<path d="M120.8,2515.7c-4.7,5.4-3.6,12.5-2,18.9c0.3,1.1,2.1,0.9,2-0.3c-1.3-12.2,17.9-15,15.8-28c-0.2-1.1-2.1-0.9-2,0.3
				c0.8,7.1,2.6,13.8,5.6,20.2c0.5,1.2,2.3,0.2,1.7-1c-2.8-6.1-4.6-12.5-5.4-19.2c-0.7,0.1-1.3,0.2-2,0.3c1.9,12-17.2,15-15.8,27.4
				c0.7-0.1,1.3-0.2,2-0.3c-1.3-5.7-2.7-12.2,1.5-17C123.1,2516.2,121.7,2514.7,120.8,2515.7L120.8,2515.7z"/>
		</g>
	</g>
	<g class="st1">
		<g>
			<path d="M132.9,2524.6c-4.7,2.5-3,9.8,2.6,9c1.8-0.2,3.3-1.6,4.6-2.6c2.3-1.7,4.5-3.4,6.8-5.1c2.1-1.6,6.2-3.6,4.9-6.8
				c-0.5-1.2-2.4-0.7-1.9,0.5c0.8,2-7.6,7.3-8.9,8.2c-1.1,0.8-2.3,2-3.6,2.6c-3.8,2-8.3-1.6-3.5-4.2
				C135.1,2525.7,134,2524,132.9,2524.6L132.9,2524.6z"/>
		</g>
	</g>
</g>
</svg>
